<?xml version="1.0" encoding="utf-8"?>
<!-- Generator: Adobe Illustrator 26.4.1, SVG Export Plug-In . SVG Version: 6.00 Build 0)  -->
<svg version="1.1" id="Livello_1" xmlns="http://www.w3.org/2000/svg" xmlns:xlink="http://www.w3.org/1999/xlink" x="0px" y="0px"
	 viewBox="0 0 450 335" style="enable-background:new 0 0 450 335;" xml:space="preserve">
<style type="text/css">
	.cbh-st0{fill:none;stroke:#030708;stroke-width:9;stroke-miterlimit:10;}
	.cbh-st1{fill:#006CFF;}
	.cbh-st2{fill:none;stroke:#020202;stroke-width:10;stroke-miterlimit:10;}
	.cbh-st3{fill:none;stroke:#006CFF;stroke-width:10;stroke-miterlimit:10;}
	.cbh-st4{fill:none;stroke:#006CFF;stroke-width:8;stroke-miterlimit:10;}
	.cbh-st5{fill:#F18876;}
	.cbh-st6{fill:#4E4D4C;}
	.cbh-st7{fill:none;}
</style>
<g>
	<g>
		<path class="cbh-st0" d="M371.3,206.7"/>
		<circle class="cbh-st1" cx="148" cy="314.3" r="14.6"/>
		<path class="cbh-st2" d="M237.1,67.7"/>
		<path class="cbh-st3" d="M139.9,317.3L139.9,317.3c-60.2,0-109-48.8-109-109v-93.2c0-60.2,48.8-109,109-109h0
			c36.3,0,68.5,17.8,88.3,45.1"/>
		<path class="cbh-st1" d="M39.3,112.1H20.6c-3.1,0-5.6,2.5-5.6,5.6v15.6h-0.3c-3.9,0-7.1,3.2-7.1,7.1v40.5c0,3.9,3.2,7.1,7.1,7.1H15
			v17.5c0,3.1,2.5,5.6,5.6,5.6h18.7c3.1,0,5.6-2.5,5.6-5.6v-87.9C44.9,114.5,42.4,112.1,39.3,112.1z"/>
		<path class="cbh-st4" d="M327.6,62.7c-15.5,0-30.3,2.6-43.8,7.2c29.7,20.1,44.8,51.5,44.8,86.8c0,36.3-16.2,68.4-47.3,88.5
			c10.5,3.8,21.8,6.4,33.6,7.5l38.2,21.1v-22.9c51.1-9.6,89.2-47.6,89.2-92.9C442.4,105.3,391,62.7,327.6,62.7z"/>
		<path class="cbh-st4" d="M229.8,52.1c-12.7-3.7-26.3-5.7-40.5-5.7c-69.9,0-126.6,49.3-126.6,110.1c0,52.4,42.1,96.2,98.5,107.3v26.4
			l42.1-24.3c63.4-6,112.7-52.7,112.7-109.4C315.9,107.9,279.9,66.7,229.8,52.1"/>
	</g>
	<path id="SVGID_1_" class="cbh-st5" d="M192.1,98.4v-6.2v-6.2c4.1-1.4,6.2-6.9,4.1-10.4c-2.1-3.5-6.2-6.2-11.1-4.1s-6.2,6.2-4.1,10.4
		c0.7,2.1,2.8,3.5,4.1,4.1v6.2v6.2c-35.9,1.4-63.6,32.5-62.2,68.4c1.4,35.9,32.5,64.2,68.4,62.2c35.9-2.1,63.6-32.5,62.2-68.4
		C252.9,126.7,226,99.7,192.1,98.4z"/>
	<path id="SVGID_00000129202772156977391840000017744987652636729012_" class="cbh-st6" d="M189.3,197.1c-30.4,0-55.3-15.2-55.3-33.9
		s24.9-33.9,55.3-33.9c31.1,0,55.3,15.2,55.3,33.9l0,0C244.6,182,220.4,197.1,189.3,197.1z"/>
	<path id="SVGID_00000023270547589106728060000015803331250837085596_" class="cbh-st1" d="M214.9,148.8c-6.2,0-11.1,4.8-11.1,11.1
		s4.8,11.1,11.1,11.1l0,0c6.2,0,10.4-4.8,10.4-11.1S220.4,148.8,214.9,148.8z"/>
	<circle id="SVGID_00000069395724208339513490000008773164729001640601_" class="cbh-st1" cx="164.5" cy="159.8" r="11.1"/>
	<g>
		<g>
			<defs>
				<path id="SVGID_00000093138616075618043530000017373597882373511073_" d="M192.1,98.4v-6.2v-6.2c4.1-1.4,6.2-6.9,4.1-10.4
					c-2.1-3.5-6.2-6.2-11.1-4.1s-6.2,6.2-4.1,10.4c0.7,2.1,2.8,3.5,4.1,4.1v6.2v6.2c-35.9,1.4-63.6,32.5-62.2,68.4
					c1.4,35.9,32.5,64.2,68.4,62.2c35.9-2.1,63.6-32.5,62.2-68.4C252.9,126.7,226,99.7,192.1,98.4z"/>
			</defs>
			<clipPath id="SVGID_00000054965180265751645740000008275781731006979239_">
				<use xlink:href="#SVGID_00000093138616075618043530000017373597882373511073_"  style="overflow:visible;"/>
			</clipPath>
		</g>
	</g>
	<path class="cbh-st7" d="M192.1,98.4v-6.2v-6.2c4.1-1.4,6.2-6.9,4.1-10.4c-2.1-3.5-6.2-6.2-11.1-4.1s-6.2,6.2-4.1,10.4
		c0.7,2.1,2.8,3.5,4.1,4.1v6.2v6.2c-35.9,1.4-63.6,32.5-62.2,68.4c1.4,35.9,32.5,64.2,68.4,62.2c35.9-2.1,63.6-32.5,62.2-68.4
		C252.9,126.7,226,99.7,192.1,98.4z"/>
	<path class="cbh-st7" d="M189.3,197.1c-30.4,0-55.3-15.2-55.3-33.9s24.9-33.9,55.3-33.9c31.1,0,55.3,15.2,55.3,33.9l0,0
		C244.6,182,220.4,197.1,189.3,197.1z"/>
	<path class="cbh-st7" d="M192.1,98.4v-6.2v-6.2c4.1-1.4,6.2-6.9,4.1-10.4c-2.1-3.5-6.2-6.2-11.1-4.1s-6.2,6.2-4.1,10.4
		c0.7,2.1,2.8,3.5,4.1,4.1v6.2v6.2c-35.9,1.4-63.6,32.5-62.2,68.4c1.4,35.9,32.5,64.2,68.4,62.2c35.9-2.1,63.6-32.5,62.2-68.4
		C252.9,126.7,226,99.7,192.1,98.4z"/>
	<path class="cbh-st7" d="M189.3,197.1c-30.4,0-55.3-15.2-55.3-33.9s24.9-33.9,55.3-33.9c31.1,0,55.3,15.2,55.3,33.9l0,0
		C244.6,182,220.4,197.1,189.3,197.1z"/>
	<path class="cbh-st7" d="M192.1,98.4v-6.2v-6.2c4.1-1.4,6.2-6.9,4.1-10.4c-2.1-3.5-6.2-6.2-11.1-4.1s-6.2,6.2-4.1,10.4
		c0.7,2.1,2.8,3.5,4.1,4.1v6.2v6.2c-35.9,1.4-63.6,32.5-62.2,68.4c1.4,35.9,32.5,64.2,68.4,62.2c35.9-2.1,63.6-32.5,62.2-68.4
		C252.9,126.7,226,99.7,192.1,98.4z"/>
	<path class="cbh-st7" d="M189.3,197.1c-30.4,0-55.3-15.2-55.3-33.9s24.9-33.9,55.3-33.9c31.1,0,55.3,15.2,55.3,33.9l0,0
		C244.6,182,220.4,197.1,189.3,197.1z"/>
</g>
</svg>
