<svg xmlns="http://www.w3.org/2000/svg" xmlns:xlink="http://www.w3.org/1999/xlink" viewBox="0 0 24 24" xml:space="preserve">
    <path fill="#5865F2" d="M19.9,4.6c-1.5-0.7-3.1-1.2-4.7-1.5C15,3.5,14.8,4,14.6,4.4c-1.8-0.3-3.5-0.3-5.2,0C9.2,4,9,3.5,8.8,3.2
        C7.1,3.4,5.5,3.9,4.1,4.6c-3,4.5-3.8,8.9-3.4,13.2c2,1.5,3.9,2.4,5.8,3c0.5-0.6,0.9-1.3,1.2-2c-0.7-0.3-1.3-0.6-1.9-0.9
        c0.2-0.1,0.3-0.2,0.5-0.4c3.8,1.8,7.8,1.8,11.6,0c0.2,0.1,0.3,0.3,0.5,0.4c-0.6,0.4-1.3,0.7-2,1c0.4,0.7,0.8,1.4,1.2,2
        c1.9-0.6,3.8-1.5,5.8-3C23.8,12.9,22.5,8.5,19.9,4.6z M8.2,15.2c-1.1,0-2.1-1.1-2.1-2.3s0.9-2.3,2.1-2.3c1.1,0,2.1,1.1,2.1,2.3
        C10.3,14.2,9.4,15.2,8.2,15.2z M15.8,15.2c-1.1,0-2.1-1.1-2.1-2.3s0.9-2.3,2.1-2.3c1.1,0,2.1,1.1,2.1,2.3
        C17.8,14.2,16.9,15.2,15.8,15.2z"/>
</svg>
