<svg xmlns="http://www.w3.org/2000/svg" height="24" width="24" viewBox="0 0 24 24" xml:space="preserve">
    <path fill="currentColor" d="M17.1,8c-0.3,0-0.5-0.1-0.7-0.3
        c-0.2-0.2-0.3-0.4-0.3-0.7c0-0.3,0.1-0.5,0.3-0.7C16.5,6.1,16.8,6,17.1,6c0.3,0,0.5,0.1,0.7,0.3C18,6.5,18.1,6.7,18.1,7
        c0,0.3-0.1,0.5-0.3,0.7C17.6,7.9,17.3,8,17.1,8z M9.1,14l2.7-3.5l1.6,2l2.3-3l3.4,4.5H9.1z M4.1,22c-0.5,0-1-0.2-1.4-0.6
        C2.3,21,2.1,20.5,2.1,20V6h2v14h14v2H4.1z M6.1,9.4V4c0-0.5,0.2-1,0.6-1.4C7,2.2,7.5,2,8.1,2h5v2h-5v5.4H6.1z M8.1,18
        c-0.5,0-1-0.2-1.4-0.6C6.3,17,6.1,16.5,6.1,16v-4.6h2V16h5v2H8.1z M15.1,18v-2h5v-4.6h2V16c0,0.5-0.2,1-0.6,1.4
        c-0.4,0.4-0.9,0.6-1.4,0.6H15.1z M20.1,9.4V4h-5V2h5c0.5,0,1,0.2,1.4,0.6C21.9,3,22.1,3.5,22.1,4v5.4H20.1z"/>
</svg>