<svg xmlns="http://www.w3.org/2000/svg" height="24" width="24" viewBox="0 0 24 24" xml:space="preserve">
    <path fill="currentColor" d="M4.2,22c-0.6,0-1.2-0.2-1.6-0.7c-0.4-0.4-0.7-1-0.7-1.6V4.2
        c0-0.6,0.2-1.2,0.7-1.6C3.1,2.2,3.6,2,4.2,2h15.6c0.6,0,1.2,0.2,1.6,0.7c0.4,0.4,0.7,1,0.7,1.6v15.6c0,0.6-0.2,1.2-0.7,1.6
        c-0.4,0.4-1,0.7-1.6,0.7H4.2z M4.2,19.8h15.6V4.2H4.2V19.8z M5.3,17.6h13.3L14.5,12l-3.3,4.4l-2.5-3.3L5.3,17.6z M4.2,19.8L4.2,19.8
        z M8.1,9.8c0.4,0,0.9-0.2,1.2-0.5C9.6,9,9.8,8.6,9.8,8.1c0-0.4-0.2-0.9-0.5-1.2C9,6.6,8.5,6.4,8.1,6.4c-0.4,0-0.9,0.2-1.2,0.5
        C6.6,7.2,6.4,7.7,6.4,8.1c0,0.4,0.2,0.9,0.5,1.2C7.2,9.6,7.7,9.8,8.1,9.8z"/>
</svg>