<svg xmlns="http://www.w3.org/2000/svg" height="24" width="24" viewBox="0 0 24 24" xml:space="preserve">
    <path fill="currentColor" d="M12.1,22c-1.3,0-2.7-0.3-3.9-0.8C7,20.7,5.9,20,5,19.1
        c-0.9-0.9-1.6-2-2.1-3.2c-0.5-1.2-0.8-2.6-0.8-3.9c0-1.3,0.3-2.7,0.8-3.9C3.4,6.9,4.1,5.8,5,4.9C5.9,4,7,3.3,8.2,2.8
        C9.4,2.3,10.7,2,12.1,2v2.2C10,4.2,8,5,6.6,6.5C5.1,7.9,4.3,9.9,4.3,12c0,2.1,0.8,4.1,2.3,5.5C8,19,10,19.8,12.1,19.8V22z
        M16.5,17.6L15,16l2.9-2.9H8.7v-2.2h9.1L15,8l1.6-1.6l5.6,5.6L16.5,17.6z"/>
</svg>