<svg role="img" xmlns="http://www.w3.org/2000/svg" version="1.1" width="24" height="24" viewBox="0 0 30 30" fill="#ffffff" aria-hidden="true" preserveAspectRatio="xMidYMid meet">
    <path d="m5.21 7.41c-1.21 0-2.21 0.99-2.21 2.21v8.14c0 1.21 0.99 2.21 2.21 2.21 1.22 0 2.21-0.99 2.21-2.21v-8.14c0-1.21-0.99-2.21-2.21-2.21z"/>
    <path d="m11.64 3.01c-1.22 0-2.21 0.99-2.21 2.2v16.94c0 1.21 0.99 2.2 2.21 2.2 1.22 0 2.21-0.98 2.21-2.2v-16.94c0-1.21-0.99-2.21-2.21-2.21z"/>
    <path d="m15.86 9.25v8.88c0 1.21 0.99 2.21 2.21 2.21 1.22 0 2.21-0.99 2.21-2.21v-8.88c0-1.22-0.99-2.21-2.21-2.21-1.22 0-2.21 0.99-2.21 2.21z"/>
    <path d="m24.5 8.97c-1.22 0-2.21 0.99-2.21 2.21v5.02c0 1.22 0.99 2.21 2.21 2.21 1.22 0 2.21-0.99 2.21-2.21v-5.02c0-1.21-0.99-2.21-2.21-2.21z"/>
</svg>
