<svg id="Layer_1" data-name="Layer 1" xmlns="http://www.w3.org/2000/svg" version="1.1" viewBox="0 0 512 512">
  <path fill="#39594d" d="M165.9,305.2c13.7,0,41-.7,79.2-16.4,44.4-18.4,131.8-51.2,195.2-85.3,44.4-23.9,63.5-55.3,63.5-97.6S456.7,0,398,0h-245.8C68.3,0,0,68.3,0,152.2s64.2,152.9,165.9,152.9Z"/>
  <path fill="#ff7759" d="M207.5,409.6c0-41,24.6-78.5,62.8-94.2l77.1-32.1c78.5-32.1,164.5,25.3,164.5,109.9s-53.2,118.8-118.8,118.8h-84c-56,0-101.7-45.7-101.7-102.4Z"/>
  <path fill="#d18ee2" d="M88.1,324.9h0c-48.5,0-88.1,39.6-88.1,88.1v11.6c0,47.8,39.6,87.4,88.1,87.4h0c48.5,0,88.1-39.6,88.1-88.1v-11.6c-.7-47.8-39.6-87.4-88.1-87.4Z"/>
</svg>