<?xml version="1.0" encoding="UTF-8"?>
<svg id="Layer_1" data-name="Layer 1" xmlns="http://www.w3.org/2000/svg" version="1.1" viewBox="0 0 512 512">
  <defs>
    <style>
      .cls-1 {
        fill: #4d6bfe;
        stroke-width: 0px;
      }
    </style>
  </defs>
  <path class="cls-1" d="M505.1,101.6c-5.4-2.6-7.7,2.4-10.9,5-1.1.8-2,1.9-2.9,2.8-7.9,8.4-17.1,14-29.1,13.3-17.6-1-32.7,4.6-45.9,18-2.8-16.6-12.2-26.5-26.5-32.9-7.5-3.3-15-6.6-20.3-13.8-3.7-5.1-4.7-10.9-6.5-16.4-1.1-3.3-2.3-6.9-6.2-7.4-4.3-.7-5.9,2.8-7.5,5.9-6.7,12.2-9.2,25.6-8.9,39,.6,30.5,13.5,54.8,39,72,2.9,2,3.7,4,2.7,6.9-1.7,6-3.9,11.8-5.7,17.6-1.1,3.8-2.9,4.7-7,2.9-14-5.9-26.2-14.5-36.9-25-18.2-17.5-34.6-37-55.2-52.2-4.8-3.5-9.6-6.8-14.6-10-20.9-20.3,2.7-37,8.2-38.9,5.7-2,2-9.1-16.5-9.1-18.6.1-35.5,6.3-57,14.5-3.1,1.2-6.5,2.1-9.8,2.8-19.6-3.8-40-4.6-61.1-2.1-40.1,4.5-72,23.3-95.4,55.7C2.7,189.1-3.9,233.2,4.2,279.2c8.5,48.5,33.3,88.6,71.3,120,39.4,32.6,84.9,48.5,136.7,45.4,31.4-1.8,66.5-6,106-39.4,9.9,5,20.4,6.9,37.8,8.4,13.4,1.2,26.3-.7,36.2-2.7,15.6-3.3,14.5-17.7,8.9-20.4-45.7-21.3-35.7-12.7-44.8-19.7,23.2-27.5,58.3-56.1,72-148.7,1.1-7.3.2-12,0-17.9-.1-3.7.7-5.1,4.9-5.5,11.5-1.3,22.6-4.5,32.8-10,29.6-16.2,41.6-42.8,44.4-74.6.4-4.9-.1-9.9-5.3-12.5h0ZM246.8,388.5c-44.3-34.9-65.8-46.3-74.7-45.8-8.3.5-6.8,10-5,16.2,1.9,6.1,4.4,10.3,7.9,15.7,2.4,3.5,4.1,8.8-2.4,12.8-14.3,8.8-39.1-2.9-40.3-3.5-28.9-17-53-39.4-70.1-70.2-16.4-29.6-26-61.3-27.6-95.2-.4-8.2,2-11.1,10.1-12.6,10.7-2,21.7-2.4,32.4-.8,45.2,6.6,83.8,26.9,116.1,58.9,18.5,18.3,32.3,40.1,46.7,61.3,15.3,22.6,31.7,44.2,52.6,61.9,7.4,6.2,13.3,11,19,14.4-17,1.9-45.4,2.3-64.9-13.1h0ZM268.3,250.2c.7-2.8,3.2-5,6.4-5s1.5.1,2.2.4c.9.3,1.7.8,2.4,1.5,1.1,1.1,1.8,2.8,1.8,4.6,0,3.7-2.9,6.5-6.6,6.5s-5.9-2.3-6.4-5.5c-.7-28.7,21.9-52.5,50.6-53.2s52.5,21.9,53.2,50.6h-103.7ZM332,286.5c-3.5,1.3-7,2.4-10.4,2.5-6.3.3-13.2-2.2-16.9-5.4-5.8-4.9-9.9-7.6-11.7-16.1-.7-3.7-.3-9.2.3-12.5,1.5-6.9-.2-11.4-5.1-15.4-4-3.3-9-4.3-14.6-4.3s-4-.9-5.4-1.6c-2.3-1.1-4.3-4.1-2.4-7.6.6-1.1,3.4-4,4.1-4.5,7.5-4.3,16.2-2.9,24.3.3,7.5,3,13.1,8.7,21.3,16.6,8.3,9.5,9.8,12.3,14.5,19.4,3.8,5.6,7.1,11.4,9.4,18,1.2,3.4.1,6.4-3.1,8.4-1.3.9-2.8,1.4-4.3,2h0Z"/>
</svg>