<?xml version="1.0" encoding="UTF-8"?>
<svg id="Layer_1" data-name="Layer 1" xmlns="http://www.w3.org/2000/svg" version="1.1" viewBox="0 0 512 512">
  <path fill="#f05237" d="M256,3C116,3,2.5,116.5,2.5,256.5s113.5,253.5,253.5,253.5,253.5-113.5,253.5-253.5S396,3,256,3ZM341.6,299.9c-.2,46.5-37.6,84.2-84,84.8h-1.2c-22.2-.2-43.5-9.1-59.2-24.9l22.6-21.8c10.2,10.1,24,15.6,38.3,15.3,29.2-.6,52.3-24.7,51.7-53.9v-78.5c0,0,0-.1,0-.2,0-29.5-23.9-53.4-53.4-53.4-29.5,0-53.4,23.9-53.4,53.4,0,29.5,23.9,53.4,53.4,53.4h28v32h-28c-44-2.1-79.2-37.3-81.2-81.2-2.2-47.1,34.1-87.1,81.2-89.4,46.3,0,84.1,37,85.2,83.3v81Z"/>
</svg>