<?xml version="1.0" encoding="UTF-8"?>
<svg id="Layer_1" data-name="Layer 1" xmlns="http://www.w3.org/2000/svg" version="1.1" viewBox="0 0 24 24">
  <defs>
    <style>
      .cls-1 {
        fill: #000;
        stroke-width: 0px;
      }
    </style>
  </defs>
  <path class="cls-1" d="M22.8,15.6c0,4.3-3.5,7.8-7.8,7.8s-.5-.1-.7-.4c-.1-.2-.1-.5,0-.8l1-1.8c.2-.4.7-.5,1-.3.4.2.5.7.3,1l-.3.5c2.8-.6,4.8-3.1,4.8-6.1s.3-.8.8-.8.8.3.8.8Z"/>
  <path class="cls-1" d="M2.8,9.6c0,.4-.3.8-.8.8s-.8-.3-.8-.8C1.2,5.3,4.7,1.8,9,1.8s.5.1.7.4c.1.2.1.5,0,.8l-1,1.8c-.2.4-.7.5-1,.3-.4-.2-.5-.7-.3-1l.3-.5c-2.8.6-4.8,3.1-4.8,6.1Z"/>
  <path class="cls-1" d="M6.9,9.1h0l-1.5,1v-1.5l1.6-1.1h1.8v6.3h-1.8v-4.7Z"/>
  <path class="cls-1" d="M9.1,15l2.2-1.8c.3-.2.5-.4.6-.5s.2-.3.3-.4c0-.1,0-.2,0-.3h0c0-.1,0-.3,0-.4,0,0-.1-.2-.3-.2-.1,0-.2,0-.4,0s-.3,0-.4,0c-.1,0-.2.2-.3.3s-.1.2-.1.4h0c0,0-1.7,0-1.7,0h0c0-.5.1-.8.3-1.2s.5-.6.9-.8c.4-.2.8-.3,1.3-.3s1,0,1.3.2c.4.2.7.4.9.7.2.3.3.6.3,1h0c0,.3,0,.5-.1.8,0,.2-.2.4-.5.6-.2.2-.5.5-.8.7l-1.9,1.6.8-1.3v1.3l-.8-.6h3.4v1.4h-5v-1.3Z"/>
  <path class="cls-1" d="M14.9,18.7c-.4-.2-.7-.4-.9-.7-.2-.3-.4-.6-.4-1h0c0,0,1.8,0,1.8,0h0c0,.1,0,.2.1.3,0,0,.2.1.3.2.1,0,.3,0,.5,0s.3,0,.4,0,.2-.1.3-.2.1-.2.1-.3h0c0-.2,0-.4-.3-.5-.2-.1-.4-.2-.7-.2h-.7v-1.2h.7c.2,0,.4,0,.5,0,.1,0,.2-.1.3-.2,0,0,.1-.2.1-.3h0c0-.1,0-.2,0-.3s-.1-.2-.3-.2c-.1,0-.3,0-.4,0s-.3,0-.4,0c-.1,0-.2.1-.3.2,0,0-.1.2-.1.3h0s-1.7,0-1.7,0h0c0-.5.1-.8.4-1.1s.5-.5.9-.7c.4-.2.8-.2,1.3-.2s.9,0,1.3.2.7.3.9.6c.2.3.3.5.3.9h0c0,.3,0,.5-.2.7s-.3.4-.5.5-.4.2-.6.3h0c.5,0,.9.2,1.1.5s.4.6.4,1h0c0,.4-.1.8-.3,1-.2.3-.5.5-.9.7-.4.2-.9.2-1.4.2s-1,0-1.4-.2Z"/>
</svg>