<svg version="1.1" id="Livello_3" xmlns="http://www.w3.org/2000/svg" xmlns:xlink="http://www.w3.org/1999/xlink" x="0px" y="0px"
	 viewBox="0 0 21.4 17.6" width="24" height="24" xml:space="preserve">
<style type="text/css">
	.st0{font-family:'MyriadPro-Bold';}
	.st1{font-size:12px;}
</style>
<path d="M13.1,17.3v-1.6h3.2c0.4,0,0.7-0.1,0.9-0.4s0.4-0.6,0.4-0.9v-2.6c0-0.7,0.2-1.2,0.6-1.7c0.4-0.5,0.9-0.9,1.5-1.1V8.7
	c-0.6-0.2-1.1-0.5-1.5-1s-0.6-1.1-0.6-1.8V3.3c0-0.4-0.1-0.7-0.4-0.9c-0.3-0.3-0.6-0.4-0.9-0.4h-3.2V0.4h3.2c0.8,0,1.5,0.3,2.1,0.8
	c0.6,0.6,0.8,1.3,0.8,2.1v2.6c0,0.4,0.1,0.7,0.4,0.9c0.3,0.3,0.6,0.4,0.9,0.4h0.8v3.2h-0.8c-0.4,0-0.7,0.1-0.9,0.4
	c-0.3,0.3-0.4,0.6-0.4,0.9v2.6c0,0.8-0.3,1.5-0.8,2.1c-0.6,0.6-1.3,0.8-2.1,0.8H13.1z M5.1,17.3c-0.8,0-1.5-0.3-2.1-0.8
	c-0.6-0.6-0.8-1.3-0.8-2.1v-2.6c0-0.4-0.1-0.7-0.4-0.9c-0.3-0.3-0.6-0.4-0.9-0.4H0.1V7.2h0.8c0.4,0,0.7-0.1,0.9-0.4
	c0.3-0.3,0.4-0.6,0.4-0.9V3.3c0-0.8,0.3-1.5,0.8-2.1c0.6-0.6,1.3-0.8,2.1-0.8h3.2v1.6H5.1c-0.4,0-0.7,0.1-0.9,0.4S3.8,2.9,3.8,3.3
	v2.6c0,0.7-0.2,1.2-0.6,1.8s-0.9,0.9-1.5,1v0.2C2.3,9.1,2.8,9.5,3.2,10c0.4,0.5,0.6,1.1,0.6,1.7v2.6c0,0.4,0.1,0.7,0.4,0.9
	s0.6,0.4,0.9,0.4h3.2v1.6H5.1z"/>
<text transform="matrix(1 0 0 1 9.269 11.0611)" class="st0 st1">;</text>
</svg>