<?xml version="1.0" encoding="utf-8"?>
<!-- Generator: Adobe Illustrator 26.4.1, SVG Export Plug-In . SVG Version: 6.00 Build 0)  -->
<svg version="1.1" id="Livello_1" xmlns="http://www.w3.org/2000/svg" xmlns:xlink="http://www.w3.org/1999/xlink" x="0px" y="0px"
	 viewBox="0 0 88 55" style="enable-background:new 0 0 88 55;" xml:space="preserve">
<style type="text/css">
	.st0{fill:#AAB5DA;}
	.st1{fill:#FFFFFF;stroke:#506493;stroke-miterlimit:10;}
	.st2{fill:#506493;}
	.st3{font-family:'Buckin-DemiBold';}
	.st4{font-size:8.95px;}
	.st5{font-size:12px;}
	.st6{fill:#FFFFFF;}
	.st7{fill:#E0E3F1;}
</style>
<path class="st0" d="M54.5,15.2c-0.2-0.2-0.6-0.2-0.8,0l-2.2,2.2c-0.2,0.2-0.2,0.6,0,0.8s0.6,0.2,0.8,0l1.3-1.3V25l-1.3-1.3
	c-0.2-0.2-0.6-0.2-0.8,0c-0.2,0.2-0.2,0.6,0,0.8l2.2,2.2c0.2,0.2,0.6,0.2,0.8,0l2.2-2.2c0.2-0.2,0.2-0.6,0-0.8
	c-0.2-0.2-0.6-0.2-0.8,0L54.6,25v-8.1l1.3,1.3c0.2,0.2,0.6,0.2,0.8,0c0.2-0.2,0.2-0.6,0-0.8C56.7,17.4,54.5,15.2,54.5,15.2z"/>
<path class="st1" d="M6.3,15.1h20.6c1.3,0,2.4,1.1,2.4,2.4v10.1c0,1.3-1.1,2.4-2.4,2.4H6.3c-1.3,0-2.4-1.1-2.4-2.4V17.5
	C3.9,16.1,4.9,15.1,6.3,15.1z"/>
<text transform="matrix(1 0 0 1 9.505 25.49)" class="st2 st3 st4">Ctrl</text>
<text transform="matrix(1 0 0 1 37.565 26.85)" class="st3 st5">+</text>
<path class="st2" d="M70.2,11.6c-4.1,0-7.4,3.3-7.4,7.4v8.9c0,4.1,3.3,7.4,7.4,7.4h3c4.1,0,7.4-3.3,7.4-7.4V19
	c0-4.1-3.3-7.4-7.4-7.4H70.2z"/>
<path class="st6" d="M73.2,17.5V19c0,0.8-0.7,1.5-1.5,1.5s-1.5-0.7-1.5-1.5v-1.5c0-0.8,0.7-1.5,1.5-1.5S73.2,16.7,73.2,17.5z"/>
<path class="st7" d="M71.8,19.6c-1,0-1.9,0.8-1.9,1.9v13c0,0.4-0.3,0.7-0.7,0.7s-0.7-0.3-0.7-0.7v-2.6c-0.1,0.1-0.2,0.1-0.3,0.2
	l-0.9,0.7c-0.7,0.6-1.1,1.4-1.1,2.3v1.8c0,1.8,0.8,3.4,2.1,4.6l0.2,0.2c1.3,1.1,3,1.7,4.7,1.7h5.5c3.3,0,5.9-2.7,5.9-5.9V33
	c0-1.2-1-2.2-2.2-2.2c-0.6,0-1.1,0.2-1.5,0.6c-0.1-1.1-1-2.1-2.2-2.1c-0.6,0-1.1,0.2-1.5,0.6c-0.1-1.1-1-2.1-2.2-2.1
	c-0.6,0-1.1,0.2-1.5,0.6v-6.9C73.6,20.4,72.8,19.6,71.8,19.6z"/>
</svg>
