<?xml version="1.0" encoding="utf-8"?>
<!-- Generator: Adobe Illustrator 26.4.1, SVG Export Plug-In . SVG Version: 6.00 Build 0)  -->
<svg version="1.1" id="Livello_1" xmlns="http://www.w3.org/2000/svg" xmlns:xlink="http://www.w3.org/1999/xlink" x="0px" y="0px"
	 viewBox="0 0 55 55" style="enable-background:new 0 0 55 55;" xml:space="preserve">
<style type="text/css">
	.st0{fill:#E0E3F1;stroke:#D2D5DA;}
	.st1{fill:#506493;}
	.st2{fill:#AAB5DA;}
</style>
<path class="st0" d="M11,10h29c1.9,0,3.5,1.6,3.5,3.5v19c0,1.9-1.6,3.5-3.5,3.5H11c-1.9,0-3.5-1.6-3.5-3.5v-19
	C7.5,11.6,9.1,10,11,10z"/>
<path class="st1" d="M40.3,21.2c-1.1-0.2-2.1,0.5-2.4,1.5l-0.7,3.1l-1.7-8.1c-0.2-1.1-1.3-1.8-2.4-1.6c-1.1,0.2-1.8,1.3-1.6,2.4
	l1.4,6.5l-3.9-5.3c-0.7-0.9-1.9-1.1-2.8-0.4c-0.9,0.7-1.1,1.9-0.4,2.8l3.1,4.2c-1.5-0.6-3.2-0.6-4.7,0c-1,0.4-1.5,1.6-1.1,2.6
	c0.4,1,1.6,1.5,2.6,1.1c0.8-0.3,1.8-0.2,2.5,0.4c1.1,0.9,1.3,2.4,0.4,3.5c-0.9,1.1-2.4,1.3-3.5,0.4c-0.7-0.6-1-1.5-0.9-2.3
	c0.2-1.1-0.6-2.1-1.7-2.3c-1.1-0.2-2.1,0.6-2.3,1.7c-0.3,2.1,0.4,4.2,2,5.7l0,0l0.4,0.3l3.5,2.8c3.5,2.7,8.5,2.2,11.2-1.3l0.4-0.5
	c0.8-1,1.3-2.1,1.6-3.3l2.5-11.7C42,22.5,41.4,21.4,40.3,21.2z"/>
<path class="st2" d="M19.9,18.9c0.3,0.2,0.5,0.5,0.3,0.9l-1.3,2.7l-0.4,0.8c-0.2,0.3-0.5,0.5-0.9,0.3c-0.3-0.2-0.5-0.5-0.3-0.9
	l0.4-0.8l0.6-1.3l-1.9,0.6c-1,0.3-1.8,1.1-2.3,2c-0.9,1.8-0.5,3.8,0.7,5.2c0.2,0.3,0.2,0.7-0.1,0.9c-0.3,0.2-0.7,0.2-0.9-0.1
	c-1.5-1.8-1.9-4.4-0.8-6.6c0.6-1.3,1.7-2.2,3.1-2.7l1.9-0.6l-1.3-0.6l0,0l-0.8-0.4c-0.3-0.2-0.5-0.5-0.3-0.9
	c0.2-0.3,0.5-0.5,0.9-0.3L19.9,18.9z"/>
<path class="st2" d="M16.2,27.9l-1.3,2.7c-0.2,0.3-0.5,0.5-0.9,0.3l-2.7-1.3c-0.3-0.2-0.5-0.5-0.3-0.9c0.2-0.3,0.5-0.5,0.9-0.3
	l1.3,0.6l-0.6-1.9c-0.5-1.3-0.4-2.8,0.3-4.1c1.1-2.2,3.4-3.5,5.7-3.4c0.4,0,0.6,0.3,0.6,0.7c0,0.4-0.3,0.6-0.7,0.6
	c-1.8-0.1-3.6,0.9-4.5,2.6c-0.5,1-0.5,2.1-0.2,3.1l0.6,1.9l0.6-1.3c0.2-0.3,0.5-0.5,0.9-0.3C16.3,27.2,16.4,27.6,16.2,27.9z"/>
</svg>
