<?xml version="1.0" encoding="utf-8"?>
<!-- Generator: Adobe Illustrator 26.4.1, SVG Export Plug-In . SVG Version: 6.00 Build 0)  -->
<svg version="1.1" id="Livello_1" xmlns="http://www.w3.org/2000/svg" xmlns:xlink="http://www.w3.org/1999/xlink" x="0px" y="0px"
	 viewBox="0 0 45 55" style="enable-background:new 0 0 45 55;" xml:space="preserve">
<style type="text/css">
	.st0{fill:#E0E3F1;stroke:#D2D5DA;}
	.st1{fill:#506493;}
	.st2{clip-path:url(#SVGID_00000093870248879627777190000012027660449147383191_);}
	.st3{fill:#AAB5DA;}
</style>
<path class="st0" d="M8,11.5h29c1.9,0,3.5,1.6,3.5,3.5v19c0,1.9-1.6,3.5-3.5,3.5H8c-1.9,0-3.5-1.6-3.5-3.5V15
	C4.5,13.1,6.1,11.5,8,11.5z"/>
<g>
	<path class="st1" d="M25.5,20c0.8,0,1.5,0.7,1.5,1.5v9.8h-3v-9.8C24,20.7,24.7,20,25.5,20z M30,27.5c0.8,0,1.5,0.7,1.5,1.5v3
		c0,0.8-0.7,1.5-1.5,1.5s-1.5-0.7-1.5-1.5v-3C28.5,28.2,29.2,27.5,30,27.5z M33,30.5c0-0.8,0.7-1.5,1.5-1.5s1.5,0.7,1.5,1.5v3
		c0,0.8-0.7,1.5-1.5,1.5S33,34.3,33,33.5V30.5z M20.6,32.8L20.6,32.8l3.3,0h1.2c1,0,1.9,0.8,1.9,1.9s-0.8,1.9-1.9,1.9h-2.6
		c-0.4,0-0.8,0.3-0.8,0.8c0,0.4,0.3,0.8,0.8,0.8h2.6c1.9,0,3.4-1.5,3.4-3.4v0c0.4,0.3,1,0.4,1.5,0.4c0.6,0,1.2-0.2,1.7-0.5
		c0.4,1.2,1.5,2,2.8,2c0.5,0,1.1-0.1,1.5-0.4v0.4c0,4.1-3.4,7.5-7.5,7.5h-2.9c-2,0-3.9-0.8-5.3-2.2l-0.5-0.5
		C18.6,40.1,18,38.6,18,37v-1.3C18,34.2,19.2,33,20.6,32.8z"/>
	<path class="st1" d="M22.1,20c0.8,0,1.5,0.7,1.5,1.5v9.8h-3v-9.8C20.6,20.7,21.3,20,22.1,20z"/>
</g>
<g>
	<defs>
		<rect id="SVGID_1_" x="8" y="17" width="10" height="10"/>
	</defs>
	<clipPath id="SVGID_00000126284989801930403300000017206657039673471408_">
		<use xlink:href="#SVGID_1_"  style="overflow:visible;"/>
	</clipPath>
	<g style="clip-path:url(#SVGID_00000126284989801930403300000017206657039673471408_);">
		<path class="st3" d="M13.4,17.2c-0.2-0.2-0.6-0.2-0.9,0l-1.2,1.2c-0.2,0.2-0.2,0.4-0.1,0.7c0.1,0.2,0.3,0.4,0.6,0.4h0.6v1.9h-1.9
			v-0.6c0-0.3-0.2-0.5-0.4-0.6c-0.2-0.1-0.5,0-0.7,0.1l-1.2,1.2c-0.2,0.2-0.2,0.6,0,0.9l1.2,1.2c0.2,0.2,0.4,0.2,0.7,0.1
			c0.2-0.1,0.4-0.3,0.4-0.6v-0.6h1.9v1.9h-0.6c-0.3,0-0.5,0.2-0.6,0.4c-0.1,0.2,0,0.5,0.1,0.7l1.2,1.2c0.2,0.2,0.6,0.2,0.9,0
			l1.2-1.2c0.2-0.2,0.2-0.4,0.1-0.7c-0.1-0.2-0.3-0.4-0.6-0.4h-0.6v-1.9h1.9v0.6c0,0.3,0.2,0.5,0.4,0.6c0.2,0.1,0.5,0,0.7-0.1
			l1.2-1.2c0.2-0.2,0.2-0.6,0-0.9l-1.2-1.3c-0.2-0.2-0.4-0.2-0.7-0.1c-0.2,0.1-0.4,0.3-0.4,0.6v0.6h-1.9v-1.9h0.6
			c0.3,0,0.5-0.2,0.6-0.4c0.1-0.2,0-0.5-0.1-0.7L13.4,17.2L13.4,17.2z"/>
	</g>
</g>
</svg>
