<?xml version="1.0" encoding="utf-8"?>
<!-- Generator: Adobe Illustrator 26.4.1, SVG Export Plug-In . SVG Version: 6.00 Build 0)  -->
<svg version="1.1" id="Livello_1" xmlns="http://www.w3.org/2000/svg" xmlns:xlink="http://www.w3.org/1999/xlink" x="0px" y="0px"
	 viewBox="0 0 40 55" style="enable-background:new 0 0 40 55;" xml:space="preserve">
<style type="text/css">
	.st0{fill:#9CA3AF;}
	.st2{fill:#506493;}
	.st3{fill:#FFFFFF;}
	.st4{fill:#E0E3F1;}
</style>
<path class="st0" d="M38.4,24.9c0.2-0.2,0.2-0.5,0-0.7l-2-2c-0.2-0.2-0.5-0.2-0.7,0s-0.2,0.5,0,0.7l1.1,1.1H31
	c-0.3,0-0.5,0.2-0.5,0.5S30.7,25,31,25h5.8l-1.1,1.1c-0.2,0.2-0.2,0.5,0,0.7s0.5,0.2,0.7,0L38.4,24.9L38.4,24.9z"/>
<g>
	<g>
		<defs>
			<rect id="SVGID_1_" x="1.5" y="20.5" width="8" height="8"/>
		</defs>
		<clipPath id="SVGID_00000124161969371525216300000002117507635279239812_">
			<use xlink:href="#SVGID_1_"  style="overflow:visible;"/>
		</clipPath>
		<g style="clip-path:url(#SVGID_00000124161969371525216300000002117507635279239812_);">
			<path class="st0" d="M1.6,24.2c-0.2,0.2-0.2,0.5,0,0.7l2,2c0.2,0.2,0.5,0.2,0.7,0s0.2-0.5,0-0.7L3.2,25H9c0.3,0,0.5-0.2,0.5-0.5
				S9.3,24,9,24H3.2l1.1-1.1c0.2-0.2,0.2-0.5,0-0.7s-0.5-0.2-0.7,0L1.6,24.2L1.6,24.2z"/>
		</g>
	</g>
</g>
<path class="st2" d="M18.5,12.5c-4.1,0-7.4,3.3-7.4,7.4v8.9c0,4.1,3.3,7.4,7.4,7.4h3c4.1,0,7.4-3.3,7.4-7.4v-8.9
	c0-4.1-3.3-7.4-7.4-7.4C21.5,12.5,18.5,12.5,18.5,12.5z"/>
<path class="st3" d="M21.5,18.4v1.5c0,0.8-0.7,1.5-1.5,1.5s-1.5-0.7-1.5-1.5v-1.5c0-0.8,0.7-1.5,1.5-1.5S21.5,17.6,21.5,18.4z"/>
<path class="st4" d="M20.1,20.5c-1,0-1.9,0.8-1.9,1.9v9.3V32v3.4c0,0.4-0.3,0.7-0.7,0.7s-0.7-0.3-0.7-0.7v-2.6
	c-0.1,0.1-0.2,0.1-0.3,0.2l-0.9,0.7c-0.7,0.6-1.1,1.4-1.1,2.3v1.8c0,1.8,0.8,3.4,2.1,4.6l0.2,0.2c1.3,1.1,3,1.7,4.7,1.7H27
	c3.3,0,5.9-2.7,5.9-5.9v-3v-1.5c0-1.2-1-2.2-2.2-2.2c-0.6,0-1.1,0.2-1.5,0.6c-0.1-1.1-1-2.1-2.2-2.1c-0.6,0-1.1,0.2-1.5,0.6
	c-0.1-1.1-1-2.1-2.2-2.1c-0.6,0-1.1,0.2-1.5,0.6v-6.9C21.9,21.3,21.1,20.5,20.1,20.5z"/>
<g>
	<g>
		<defs>
			<rect id="SVGID_00000101800772651017181600000003714771850779232910_" x="16.5" y="2.3" width="8" height="8"/>
		</defs>
		<clipPath id="SVGID_00000183943801806477757990000007787808046751857804_">
			<use xlink:href="#SVGID_00000101800772651017181600000003714771850779232910_"  style="overflow:visible;"/>
		</clipPath>
		<g style="clip-path:url(#SVGID_00000183943801806477757990000007787808046751857804_);">
			<path class="st0" d="M20.9,2.5c-0.2-0.2-0.5-0.2-0.7,0l-2,2C18,4.7,18,5,18.2,5.2s0.5,0.2,0.7,0L20,4.1v5.8
				c0,0.3,0.2,0.5,0.5,0.5S21,10.1,21,9.8V4.1l1.1,1.1c0.2,0.2,0.5,0.2,0.7,0s0.2-0.5,0-0.7L20.9,2.5L20.9,2.5z"/>
		</g>
	</g>
</g>
<g>
	<g>
		<defs>
			<rect id="SVGID_00000024706064789911101660000001869841288755265161_" x="16.5" y="45.7" width="8" height="8"/>
		</defs>
		<clipPath id="SVGID_00000109004157894426949150000004052302589039118750_">
			<use xlink:href="#SVGID_00000024706064789911101660000001869841288755265161_"  style="overflow:visible;"/>
		</clipPath>
		<g style="clip-path:url(#SVGID_00000109004157894426949150000004052302589039118750_);">
			<path class="st0" d="M20.2,53.5c0.2,0.2,0.5,0.2,0.7,0l2-2c0.2-0.2,0.2-0.5,0-0.7s-0.5-0.2-0.7,0L21,51.9v-5.8
				c0-0.3-0.2-0.5-0.5-0.5S20,45.9,20,46.2V52l-1.1-1.1c-0.2-0.2-0.5-0.2-0.7,0s-0.2,0.5,0,0.7L20.2,53.5L20.2,53.5z"/>
		</g>
	</g>
</g>
</svg>
