<?xml version="1.0" encoding="utf-8"?>
<!-- Generator: Adobe Illustrator 26.4.1, SVG Export Plug-In . SVG Version: 6.00 Build 0)  -->
<svg version="1.1" id="Livello_1" xmlns="http://www.w3.org/2000/svg" xmlns:xlink="http://www.w3.org/1999/xlink" x="0px" y="0px"
	 viewBox="0 0 40 55" style="enable-background:new 0 0 40 55;" xml:space="preserve">
<style type="text/css">
	.st0{fill:#AAB5DA;}
	.st1{fill:#506493;}
	.st2{fill:#FFFFFF;}
	.st3{fill:#E0E3F1;}
</style>
<path class="st0" d="M7,19.5c-0.2-0.2-0.6-0.2-0.8,0L4,21.7c-0.2,0.2-0.2,0.6,0,0.8c0.2,0.2,0.6,0.2,0.8,0l1.3-1.3v8.1L4.8,28
	c-0.2-0.2-0.6-0.2-0.8,0c-0.2,0.2-0.2,0.6,0,0.8L6.2,31c0.2,0.2,0.6,0.2,0.8,0l2.2-2.2c0.2-0.2,0.2-0.6,0-0.8
	c-0.2-0.2-0.6-0.2-0.8,0l-1.3,1.3v-8.1l1.3,1.3c0.2,0.2,0.6,0.2,0.8,0s0.2-0.6,0-0.8L7,19.5z"/>
<path class="st1" d="M22.7,15.9c-4.1,0-7.4,3.3-7.4,7.4v8.9c0,4.1,3.3,7.4,7.4,7.4h3c4.1,0,7.4-3.3,7.4-7.4v-8.9
	c0-4.1-3.3-7.4-7.4-7.4C25.7,15.9,22.7,15.9,22.7,15.9z"/>
<path class="st2" d="M25.7,21.8v1.5c0,0.8-0.7,1.5-1.5,1.5s-1.5-0.7-1.5-1.5v-1.5c0-0.8,0.7-1.5,1.5-1.5S25.7,21,25.7,21.8z"/>
<path class="st3" d="M24.3,23.9c-1,0-1.9,0.8-1.9,1.9v9.3v0.3v3.4c0,0.4-0.3,0.7-0.7,0.7S21,39.2,21,38.8v-2.6
	c-0.1,0.1-0.2,0.1-0.3,0.2l-0.9,0.7c-0.7,0.6-1.1,1.4-1.1,2.3v1.8c0,1.8,0.8,3.4,2.1,4.6L21,46c1.3,1.1,3,1.7,4.7,1.7h5.5
	c3.3,0,5.9-2.7,5.9-5.9v-3v-1.5c0-1.2-1-2.2-2.2-2.2c-0.6,0-1.1,0.2-1.5,0.6c-0.1-1.1-1-2.1-2.2-2.1c-0.6,0-1.1,0.2-1.5,0.6
	c-0.1-1.1-1-2.1-2.2-2.1c-0.6,0-1.1,0.2-1.5,0.6v-6.9C26.1,24.7,25.3,23.9,24.3,23.9z"/>
</svg>
