<svg  xmlns="http://www.w3.org/2000/svg" viewBox="0 0 512 512" height="18px"  width="18px" fill="#fff" >
  <path d="M500.7,261.2c-97.8-27-116.6-45.8-143.6-143.6-1.5-5.5-6.5-9.3-12.2-9.3s-10.7,3.8-12.2,9.3c-27,97.8-45.8,116.5-143.6,143.6-5.5,1.5-9.3,6.5-9.3,12.2s3.8,10.7,9.3,12.2c97.8,27,116.5,45.8,143.6,143.6,1.5,5.5,6.5,9.3,12.2,9.3s10.7-3.8,12.2-9.3c27-97.8,45.8-116.5,143.6-143.6,5.5-1.5,9.3-6.5,9.3-12.2s-3.8-10.7-9.3-12.2Z"/>
  <path d="M58.1,122.2c59.5,16.4,70,26.9,86.4,86.4,1.5,5.5,6.5,9.3,12.2,9.3s10.7-3.8,12.2-9.3c16.4-59.5,26.9-70,86.4-86.4,5.5-1.5,9.3-6.5,9.3-12.2s-3.8-10.7-9.3-12.2c-59.5-16.4-70-26.9-86.4-86.4-1.5-5.5-6.5-9.3-12.2-9.3s-10.7,3.8-12.2,9.3c-16.4,59.5-26.9,70-86.4,86.4-5.5,1.5-9.3,6.5-9.3,12.2s3.8,10.7,9.3,12.2Z"/>
  <path d="M221.3,383.5c-63.2-17.4-75.3-29.6-92.8-92.7-1.5-5.5-6.5-9.3-12.2-9.3s-10.7,3.8-12.2,9.3c-17.4,63.2-29.6,75.3-92.8,92.7-5.5,1.5-9.3,6.5-9.3,12.2s3.8,10.7,9.3,12.2c63.2,17.5,75.3,29.6,92.8,92.7,1.5,5.5,6.5,9.3,12.2,9.3s10.7-3.8,12.2-9.3c17.4-63.2,29.6-75.3,92.8-92.7,5.5-1.5,9.3-6.5,9.3-12.2s-3.8-10.7-9.3-12.2Z"/>
</svg>