<?xml version="1.0" encoding="utf-8"?>
<!-- Generator: Adobe Illustrator 26.4.1, SVG Export Plug-In . SVG Version: 6.00 Build 0)  -->
<svg version="1.1" id="Livello_1" xmlns="http://www.w3.org/2000/svg" xmlns:xlink="http://www.w3.org/1999/xlink" x="0px" y="0px"
	 viewBox="0 0 18 18" style="enable-background:new 0 0 18 18;" xml:space="preserve">
<style type="text/css">
	.st0{fill:#0B996E;}
</style>
<path class="st0" d="M12.1,7.6c0.7-0.7,1.1-1.6,1.1-2.6c0-2.1-1.5-3.5-3.8-3.5H3.7v14.9h4.5c3.4,0,6-2.1,6-5
	C14.3,9.9,13.5,8.5,12.1,7.6z M5.8,3.5h3.3c1.1,0,1.9,0.7,1.9,1.6c0,1.1-1,2-3,2.6C6.7,8.2,6.1,8.6,5.8,9L5.8,9V3.5z M8.1,14.5H5.8
	v-2.3c0-1,0.9-2,2.1-2.4c1.1-0.4,1.9-0.7,2.7-1.1c1,0.6,1.6,1.6,1.6,2.7C12.1,13.2,10.4,14.5,8.1,14.5z"/>
</svg>
