<svg xmlns="http://www.w3.org/2000/svg" xmlns:xlink="http://www.w3.org/1999/xlink" x="0px" y="0px" viewBox="0 0 18 18" style="enable-background:new 0 0 18 18;" xml:space="preserve">
    <style type="text/css">
        .st0{fill:#FFCD00;}
        .st1{fill:#00ECBB;}
        .st2{fill:#AF64FF;}
        .st3{fill:#7131FF;}
    </style>
    <g>
        <path class="st0" d="M9,9.9c1.9,0,3.4-1.5,3.4-3.4C12.4,4.5,10.9,3,9,3S5.5,4.5,5.5,6.4c0,0,0,0,0,0C5.5,8.3,7.1,9.9,9,9.9
            C9,9.9,9,9.9,9,9.9z"/>
        <path class="st1" d="M9,11.6L9,11.6c-2.4,0-4.4-1.6-5-3.9C3.8,7,3.3,6.4,2.6,6.4H0.4C0.4,11.2,4.3,15,9,15l0,0h0L9,11.6z"/>
        <path class="st2" d="M9,11.6L9,11.6c2.4,0,4.4-1.6,5-3.9c0.2-0.7,0.7-1.3,1.4-1.3h2.2c0,4.7-3.9,8.6-8.6,8.6h0V11.6z"/>
        <path class="st3" d="M15.1,12.5c-3.4,3.4-8.8,3.4-12.2,0c0,0,0,0,0,0l2.4-2.4c2,2,5.3,2,7.3,0L15.1,12.5z"/>
    </g>
</svg>
