<svg xmlns="http://www.w3.org/2000/svg"  height="18px"  width="18px" x="0px" y="0px" viewBox="0 0 18 18" xml:space="preserve">
<path fill="#FF7A59" d="M13.1,6.5V4.7c0.5-0.2,0.8-0.7,0.8-1.2v0c0-0.7-0.7-1.4-1.5-1.4h0c-0.8,0-1.5,0.6-1.5,1.4v0
	c0,0.5,0.3,1,0.8,1.2v1.8c-0.7,0.1-1.4,0.4-2,0.8L4.6,3.5c0-0.1,0.1-0.3,0.1-0.4c0-0.8-0.7-1.5-1.6-1.5S1.4,2.3,1.4,3.1
	S2.1,4.7,3,4.7c0,0,0,0,0,0c0.3,0,0.6-0.1,0.8-0.2L9,8.2C8,9.5,8,11.2,9,12.5l-1.6,1.4c-0.1,0-0.3-0.1-0.4-0.1
	c-0.7,0-1.4,0.6-1.4,1.3c0,0.7,0.6,1.3,1.4,1.3c0.7,0,1.4-0.6,1.4-1.3c0-0.1,0-0.2-0.1-0.4l1.5-1.4c1.4,1,3.3,1.1,4.8,0.2
	c1.5-0.9,2.2-2.5,1.9-4.1C16.2,7.9,14.8,6.7,13.1,6.5 M12.5,12.3c-1.2,0-2.2-0.8-2.2-1.9c0-1.1,0.9-2,2.1-2c0,0,0.1,0,0.1,0
	c1.2,0,2.1,0.9,2.1,2C14.5,11.4,13.6,12.2,12.5,12.3"/>
</svg>
