<svg xmlns="http://www.w3.org/2000/svg" version="1.1" viewBox="0 0 58.1 53.9" height="18px" width="18px" fill="#fff">
  <path d="M29,2.1C13.9,2.1,1.6,12.6,1.6,25.6s1.6,9.2,4.5,12.9c-.3,4.3-1.4,10.4-4.5,13.3,0,0,9.4-1.3,15.8-4.9,3.5,1.5,7.5,2.2,11.6,2.2,15.2,0,27.4-10.5,27.4-23.5S44.2,2.1,29,2.1ZM29,38.9c-1.7,0-3.1-1.4-3.1-3s1.4-3,3.1-3,3.1,1.4,3.1,3c-.1,1.7-1.4,3-3.1,3ZM33.3,18l-1.5,10c-.2,1.5-1.6,2.5-3.1,2.3-1.2-.2-2.1-1.1-2.3-2.2l-1.6-10c-.4-2.3,1.2-4.5,3.6-4.9,2.4-.4,4.6,1.2,5,3.5,0,.4,0,.9,0,1.3Z"/>
</svg>