<?xml version="1.0" encoding="utf-8"?>
<!-- Generator: Adobe Illustrator 26.4.1, SVG Export Plug-In . SVG Version: 6.00 Build 0)  -->
<svg version="1.1" id="Livello_1" xmlns="http://www.w3.org/2000/svg" xmlns:xlink="http://www.w3.org/1999/xlink" x="0px" y="0px"
	 viewBox="0 0 150 150" style="enable-background:new 0 0 150 150;" xml:space="preserve">
<style type="text/css">
	.st0{fill-rule:evenodd;clip-rule:evenodd;fill:#EA4B71;}
</style>
<path class="st0" d="M144.7,56.6c0,7.9-6.4,14.3-14.3,14.3c-6.7,0-12.3-4.6-13.9-10.8h-20c-3.5,0-6.5,2.5-7.1,6l-0.6,3.5
	c-0.6,3.4-2.3,6.3-4.7,8.4c2.4,2.1,4.1,5,4.7,8.4l0.6,3.5c0.6,3.5,3.6,6,7.1,6h5.7c1.6-6.2,7.2-10.8,13.9-10.8
	c7.9,0,14.3,6.4,14.3,14.3s-6.4,14.3-14.3,14.3c-6.7,0-12.3-4.6-13.9-10.8h-5.7c-7,0-13-5.1-14.1-12l-0.6-3.5c-0.6-3.5-3.6-6-7.1-6
	h-5.8c-1.8,5.9-7.3,10.2-13.7,10.2s-11.9-4.3-13.7-10.2h-8.4c-1.8,5.9-7.3,10.2-13.7,10.2c-7.9,0-14.3-6.4-14.3-14.3
	c0-7.9,6.4-14.3,14.3-14.3c6.9,0,12.6,4.9,14,11.3H41c1.4-6.5,7.1-11.3,14-11.3c6.9,0,12.6,4.9,14,11.3h5.5c3.5,0,6.5-2.5,7.1-6
	l0.6-3.5c1.2-6.9,7.1-12,14.1-12h20c1.6-6.2,7.2-10.8,13.9-10.8C138.2,42.2,144.7,48.7,144.7,56.6z M137.5,56.6c0,4-3.2,7.2-7.2,7.2
	c-4,0-7.2-3.2-7.2-7.2c0-4,3.2-7.2,7.2-7.2C134.3,49.4,137.5,52.6,137.5,56.6z M19.2,84.6c4,0,7.2-3.2,7.2-7.2c0-4-3.2-7.2-7.2-7.2
	c-4,0-7.2,3.2-7.2,7.2C12.1,81.4,15.3,84.6,19.2,84.6z M55.1,84.6c4,0,7.2-3.2,7.2-7.2c0-4-3.2-7.2-7.2-7.2c-4,0-7.2,3.2-7.2,7.2
	C47.9,81.4,51.1,84.6,55.1,84.6z M116,106.7c4,0,7.2-3.2,7.2-7.2s-3.2-7.2-7.2-7.2c-4,0-7.2,3.2-7.2,7.2S112,106.7,116,106.7z"/>
</svg>
