<?xml version="1.0" encoding="utf-8"?>
<!-- Generator: Adobe Illustrator 26.4.1, SVG Export Plug-In . SVG Version: 6.00 Build 0)  -->
<svg version="1.1" id="Livello_1" xmlns="http://www.w3.org/2000/svg" xmlns:xlink="http://www.w3.org/1999/xlink" x="0px" y="0px"
	 viewBox="0 0 150 150" style="enable-background:new 0 0 150 150;" xml:space="preserve">
	<path class="st0" d="M143.6,57.2c0,7.8-6.3,14.1-14.1,14.1c-6.6,0-12.1-4.5-13.7-10.6H96.1c-3.5,0-6.4,2.5-7,5.9l-0.6,3.5
		c-0.6,3.3-2.2,6.2-4.6,8.3c2.4,2.1,4,5,4.6,8.3l0.6,3.5c0.6,3.4,3.5,5.9,7,5.9h5.6c1.6-6.1,7.1-10.6,13.7-10.6
		c7.8,0,14.1,6.3,14.1,14.1s-6.3,14.1-14.1,14.1c-6.6,0-12.1-4.5-13.7-10.6h-5.6c-6.9,0-12.8-5-13.9-11.8l-0.6-3.5
		c-0.6-3.4-3.5-5.9-7-5.9h-5.8c-1.8,5.8-7.1,10-13.5,10s-11.7-4.2-13.5-10h-8.3c-1.8,5.8-7.1,10-13.5,10c-7.8,0-14.1-6.3-14.1-14.1
		c0-7.8,6.3-14.1,14.1-14.1c6.8,0,12.5,4.8,13.8,11.2h7.7c1.4-6.4,7-11.2,13.8-11.2c6.8,0,12.5,4.8,13.8,11.2h5.5
		c3.5,0,6.4-2.5,7-5.9l0.6-3.5c1.1-6.8,7-11.8,13.9-11.8h19.7c1.6-6.1,7.1-10.6,13.7-10.6C137.3,43,143.6,49.4,143.6,57.2z
		M136.5,57.2c0,3.9-3.2,7.1-7.1,7.1c-3.9,0-7.1-3.2-7.1-7.1c0-3.9,3.2-7.1,7.1-7.1C133.4,50.1,136.5,53.3,136.5,57.2z M20,84.8
		c3.9,0,7.1-3.2,7.1-7.1c0-3.9-3.2-7.1-7.1-7.1c-3.9,0-7.1,3.2-7.1,7.1C13,81.7,16.1,84.8,20,84.8z M55.3,84.8c3.9,0,7.1-3.2,7.1-7.1
		c0-3.9-3.2-7.1-7.1-7.1c-3.9,0-7.1,3.2-7.1,7.1C48.3,81.7,51.4,84.8,55.3,84.8z M115.4,106.6c3.9,0,7.1-3.2,7.1-7.1
		s-3.2-7.1-7.1-7.1c-3.9,0-7.1,3.2-7.1,7.1S111.5,106.6,115.4,106.6z"/>
</svg>