<?xml version="1.0" encoding="utf-8"?>
<!-- Generator: Adobe Illustrator 28.4.1, SVG Export Plug-In . SVG Version: 6.00 Build 0)  -->
<svg version="1.1" id="Layer_1" xmlns="http://www.w3.org/2000/svg" xmlns:xlink="http://www.w3.org/1999/xlink" x="0px" y="0px"
	 viewBox="0 0 512 512" style="enable-background:new 0 0 512 512;" xml:space="preserve">
<path d="M463.2,199.4h-23.6v-29.6c0-36.1-29.6-65.7-65.7-65.7H268.1V86.4C284.6,81.1,297,66,297,47.6c0-22.3-18.4-40.1-40.1-40.1
	S216.9,26,216.9,47.6c0,18.4,11.8,33.5,28.9,38.8v17.7H138.8c-36.1,0-65.7,29.6-65.7,65.7v29.6H49.4c-25.6,0-46,21-46,46v84.1
	c0,25.6,21,46,46,46h35.5c6.6,0,11.8-5.3,11.8-11.8V169.8c0-23.6,19-42.7,42.7-42.7h235.1c23.6,0,42.7,19,42.7,42.7V405
	c0,23.6-19,42.7-42.7,42.7h-76.2c-5.3-18.4-22.3-32.2-42-32.2c-24.3,0-44,19.7-44,44c0,24.3,19.7,44,44,44c20.4,0,37.4-13.8,42-32.2
	h74.9c36.1,0,65.7-29.6,65.7-65.7v-29.6h23.6c25.6,0,46-21,46-46v-84.7C509.2,220.4,488.8,199.4,463.2,199.4z M239.2,47.6
	c0-9.2,7.9-17.1,17.1-17.1s17.1,7.9,17.1,17.1s-7.9,17.1-17.1,17.1S239.2,56.8,239.2,47.6z M73.1,352.4H49.4c-12.5,0-23-10.5-23-23
	v-84.1c0-12.5,10.5-23,23-23h23.6V352.4z M256.3,479.8c-11.2,0-20.4-9.2-20.4-20.4c0-11.2,9.2-20.4,20.4-20.4
	c11.2,0,20.4,9.2,20.4,20.4C276.7,470.6,267.5,479.8,256.3,479.8z M486.2,329.4c0,12.5-10.5,23-23,23h-23.6v-130h23.6
	c12.5,0,23,10.5,23,23V329.4z"/>
<path d="M195.2,261.8c21,0,37.4-17.1,37.4-37.4c0-21-17.1-37.4-37.4-37.4s-37.4,15.8-37.4,36.8S174.2,261.8,195.2,261.8z
	 M195.2,209.2c7.9,0,14.4,6.6,14.4,14.4c0,7.9-6.6,14.4-14.4,14.4s-14.4-6.6-14.4-14.4C180.8,215.8,187.4,209.2,195.2,209.2z"/>
<path d="M354.8,223.7c0-21-17.1-37.4-37.4-37.4c-20.4,0-37.4,17.1-37.4,37.4c0,21,17.1,37.4,37.4,37.4
	C337.8,261.1,354.8,244.7,354.8,223.7z M303,223.7c0-7.9,6.6-14.4,14.4-14.4c7.9,0,14.4,6.6,14.4,14.4c0,7.9-6.6,14.4-14.4,14.4
	C309.5,238.1,303,231.6,303,223.7z"/>
<path d="M357.5,352.4v-32.8c0-13.8-11.2-25.6-25.6-25.6H180.8c-13.8,0-25.6,11.2-25.6,25.6v32.8c0,13.8,11.2,25.6,25.6,25.6h151.1
	C345.6,378,357.5,366.9,357.5,352.4z M178.2,352.4v-32.8c0-1.3,1.3-2.6,2.6-2.6h151.1c1.3,0,2.6,1.3,2.6,2.6v32.8
	c0,1.3-1.3,2.6-2.6,2.6H180.8C179.5,355,178.2,353.7,178.2,352.4z"/>
</svg>
