<?xml version="1.0" encoding="utf-8"?>
<!-- Generator: Adobe Illustrator 26.4.1, SVG Export Plug-In . SVG Version: 6.00 Build 0)  -->
<svg version="1.1" id="Livello_1" xmlns="http://www.w3.org/2000/svg" xmlns:xlink="http://www.w3.org/1999/xlink" x="0px" y="0px"
	 viewBox="0 0 150 150" style="enable-background:new 0 0 150 150;" xml:space="preserve">
<style type="text/css">
	.st0{fill-rule:evenodd;clip-rule:evenodd;fill:#A7BDD0;}
	.st1{fill-rule:evenodd;clip-rule:evenodd;fill:#52799F;}
	.st2{fill-rule:evenodd;clip-rule:evenodd;fill:#FE6A32;}
	.st3{fill-rule:evenodd;clip-rule:evenodd;fill:#094B84;}
</style>
<g>
	<path class="st0" d="M46.8,4.4c0.9,0,1.7,0.1,2.5,0.3C48.4,4.7,47.6,4.6,46.8,4.4z"/>
</g>
<g>
	<path class="st1" d="M40,4.5C39,4.8,38,5,36.9,5C37.9,4.7,38.9,4.6,40,4.5z"/>
</g>
<path class="st2" d="M143.5,29.3c0-0.5-0.1-0.9-0.3-1.2c-0.4-1.4-1.2-2.5-2.5-3.3c-1.8-1-3.8-1.4-5.9-1.3c-0.5-0.2-1-0.3-1.5-0.4
	l-1.5-0.4c-3-1-5.5-2.7-7.4-5.2c-0.1-0.3-0.3-0.6-0.6-0.8c-0.9-1.5-1.6-3.1-2.2-4.8c-0.2-0.8-0.3-1.6-0.5-2.3
	c-0.1-1.2-0.2-2.5-0.3-3.7c0-0.4-0.1-0.7-0.3-0.9c-0.9-2.1-2.5-3.4-4.8-3.8c-3-0.2-5.9-0.2-8.9-0.1c-0.2,0-0.3,0.1-0.5,0.2
	c-1.4,0.4-2.5,1.1-3.2,2.3c-0.8,0.8-1.2,1.8-1.3,2.9c-0.1,10.3-0.1,20.5,0,30.8c0,1,0.4,1.9,1,2.6c0.1,0.3,0.3,0.7,0.6,0.9
	c1,1.1,2.2,1.8,3.7,2.1c10.3,0.1,20.5,0.1,30.8,0c0.6,0,1.1-0.2,1.5-0.5c0.4-0.1,0.7-0.3,1.1-0.5c1.3-0.9,2.3-2.2,2.8-3.7
	c0.2-1.4,0.3-2.9,0.3-4.5C143.6,32.3,143.6,30.8,143.5,29.3z"/>
<g>
	<path class="st3" d="M5.5,40.4C5.3,57.5,5.3,74.6,5.4,91.7c0.1,0.9,0.3,1.8,0.5,2.6c-0.1-0.9-0.2-1.9-0.4-2.8
		C5.5,74.5,5.5,57.5,5.5,40.4z"/>
	<path class="st3" d="M82.5,40.6c0-0.9-0.1-1.8-0.3-2.6c0-0.7-0.1-1.5-0.3-2.2c-0.2-1.8-0.7-3.6-1.4-5.2c-0.3-1.1-0.7-2.2-1.2-3.2
		C73.2,14.6,63.2,7.1,49.2,4.7c-0.9,0-1.7-0.1-2.5-0.3c-2.3,0-4.5,0-6.8,0.2C39,4.8,38,5,36.9,5c-1.1,0.2-2.2,0.4-3.2,0.7
		C22,9.2,13.6,16.5,8.6,27.6c-0.8,1.8-1.5,3.6-1.8,5.5c-0.2,0.3-0.3,0.7-0.3,1.1c-0.2,0.3-0.3,0.7-0.3,1.1c0,0.3,0,0.5,0,0.8
		C6,37.8,5.9,39.4,5.7,41c0,0.3,0,0.5,0,0.8c0,16,0,31.9,0,47.9c0,0.6,0,1.2,0.2,1.7C6,92.7,6.1,94,6.3,95.2
		c-0.1-0.3-0.2-0.6-0.3-0.9c0,0.4,0,0.8,0.1,1.2c0,0.1,0.1,0.2,0.2,0.3c1.3,6.2,3.9,11.7,7.9,16.6c6.4,7.5,14.4,12,24.1,13.6
		c0.7,0.2,1.4,0.3,2.2,0.3c0.4,0.1,0.9,0.2,1.4,0.2c2.3,0,4.5,0,6.8,0.1c0.5,0,1,0.1,1.4,0.2c1,0.2,2.1,0.5,3.1,0.8
		c6.8,3.1,10.3,8.4,10.2,15.9c0.6,2.8,2.3,4.5,5,5.3c3.1,0.1,6.2,0.1,9.2,0c2.3-0.7,3.9-2.1,4.7-4.4C82.5,109.9,82.6,75.2,82.5,40.6
		z M46.2,107.1c-2.1,0-4.1-0.1-6.2-0.3c-7.9-2-12.9-7-14.9-14.9c0-0.7-0.1-1.3-0.2-2c0-16.2,0-32.3,0.1-48.5
		c0.1-0.9,0.2-1.8,0.2-2.8c1.7-6.6,5.7-11.2,12-13.8c1.1-0.4,2.2-0.7,3.4-0.8c1.8-0.1,3.7-0.2,5.5-0.2c8.2,1.3,13.7,5.8,16.4,13.7
		c0.3,1.1,0.5,2.3,0.7,3.4c0,16.3,0,32.6-0.1,49c-0.2,1.4-0.5,2.8-0.8,4.2C59.5,101.5,54.1,105.9,46.2,107.1z"/>
</g>
</svg>
