<?xml version="1.0" encoding="utf-8"?>
<!-- Generator: Adobe Illustrator 28.4.1, SVG Export Plug-In . SVG Version: 6.00 Build 0)  -->
<svg version="1.1" id="Layer_1" xmlns="http://www.w3.org/2000/svg" xmlns:xlink="http://www.w3.org/1999/xlink" x="0px" y="0px"
	 viewBox="0 0 18 18" style="enable-background:new 0 0 18 18;" xml:space="preserve">
<style type="text/css">
	.st0{display:none;}
	.st1{fill-rule:evenodd;clip-rule:evenodd;}
</style>
<path class="st0" d="M17.1,15.8c-0.8-1.3-2-2.4-3.4-3.1c-1.4-0.7-3-1.1-4.6-1.2v3.2l-6.3-6l6.3-6v3.7c2.2,0.3,4.3,1.3,5.9,2.9
	c1.7,1.6,2.8,3.8,2.9,6.2L17.1,15.8z"/>
<path class="st1" d="M9.9,6.5c0-2.2,1.8-4,4-4c2.2,0,4,1.8,4,4c0,2.2-1.8,4-4,4C11.7,10.5,9.9,8.7,9.9,6.5z M14,3.2
	c-1.8,0-3.2,1.4-3.2,3.2c0,1.8,1.4,3.2,3.2,3.2c1.8,0,3.2-1.4,3.2-3.2C17.2,4.7,15.8,3.2,14,3.2z"/>
<path class="st1" d="M13.5,4c0.2,0,0.4,0.2,0.4,0.4V6c0,0.1,0,0.2,0,0.2l0,0l0,0c0,0,0.1,0.1,0.2,0.1l0.8,0.6
	c0.2,0.1,0.2,0.4,0.1,0.6c-0.1,0.2-0.4,0.2-0.6,0.1L13.6,7c0,0,0,0,0,0c-0.1-0.1-0.2-0.1-0.2-0.2c-0.1-0.1-0.2-0.1-0.2-0.2
	c-0.1-0.1-0.1-0.2-0.1-0.3c0-0.1,0-0.2,0-0.3c0,0,0,0,0,0V4.4C13.1,4.2,13.3,4,13.5,4z"/>
<path class="st0" d="M15.1,9.5c-0.4,0.1-0.7,0.2-1.1,0.2c0.1,0.1,0.2,0.2,0.4,0.3c1.1,1,1.9,2.3,2.3,3.7c-0.7-0.8-1.6-1.4-2.6-1.9
	l0,0c-1.7-0.9-3.6-1.3-5.5-1.3l-0.5,0v2l-4-3.8l4-3.8v2.4l0.4,0c0.6,0,1.3,0.2,1.9,0.4c-0.2-0.3-0.3-0.7-0.4-1.1
	c-0.3-0.1-0.6-0.1-1-0.2V2.8L2.8,8.8l6.2,5.9v-3.2c1.6,0.1,3.2,0.5,4.6,1.2c1.4,0.7,2.6,1.8,3.4,3.1l0.9-0.3
	C17.8,13.2,16.7,11.1,15.1,9.5z"/>
<g>
	<path d="M13.8,11.2c-2.7,0-4.9-2.1-4.9-4.8c-0.5-0.1-1-0.2-1.5-0.3V1.8L0.2,8.6l7.2,6.8v-3.7c1.8,0.1,3.6,0.5,5.3,1.4
		c1.6,0.8,3,2.1,3.9,3.6l1-0.3c-0.1-2-0.9-4-2.1-5.6C15,11.1,14.4,11.2,13.8,11.2z"/>
</g>
</svg>
