<?xml version="1.0" encoding="UTF-8"?>
<svg id="Layer_1" data-name="Layer 1" xmlns="http://www.w3.org/2000/svg" version="1.1" viewBox="0 0 18 18">
  <defs>
    <style>
      .cls-1 {
        fill: #000;
        stroke-width: 0px;
      }
    </style>
  </defs>
  <g>
    <path class="cls-1" d="M5.4,4.7h-.3"/>
    <path class="cls-1" d="M15.4,3.4c-1.4-1.5-3.4-2.3-5.5-2.3s-3.1.5-4.4,1.4l1.2,1.2c1-.6,2.1-1,3.3-1,3.4,0,6.1,2.8,6.1,6.2,0,2.5-1.5,4.7-3.8,5.7-1.2.5-2.6.6-3.8.3l-1.3,1.3c.9.3,1.8.5,2.7.5h0c2,0,4-.8,5.5-2.3,1.4-1.5,2.3-3.4,2.3-5.5,0-2.1-.8-4-2.3-5.5Z"/>
  </g>
  <path class="cls-1" d="M12.8,10.8h-3.6c-.2,0-.4,0-.6-.2-.2-.2-.2-.4-.2-.6v-4.1c0-.5.4-.8.8-.8s.8.4.8.8v3.3h2.8c.4,0,.8.4.8.8s-.4.8-.8.8h0Z"/>
  <path class="cls-1" d="M1.8,5.8v4.5c0,.4.3.8.8.8s.8-.3.8-.8v-4.5h1.3c.3,0,.5-.4.3-.6l-2.1-2.1c-.2-.1-.4-.1-.5,0L.2,5.2c-.2.2,0,.6.3.6h1.4Z"/>
  <path class="cls-1" d="M12.8,10.8h-3.5c-.2,0-.4,0-.6-.2-.2-.1-.2-.4-.2-.6v-4.1c0-.4.4-.8.8-.8s.8.4.8.8v3.3h2.7c.4,0,.8.4.8.8s-.4.8-.8.8h0Z"/>
  <path class="cls-1" d="M6.2,13.3v-4.5c0-.4-.3-.8-.8-.8s-.8.3-.8.8v4.5h-1.3c-.3,0-.5.4-.3.6l2.1,2.1c.2.1.4.1.5,0l2.1-2.1c.2-.2,0-.6-.3-.6h-1.4Z"/>
</svg>