<svg class="svg-icon" xmlns="http://www.w3.org/2000/svg" xmlns:xlink="http://www.w3.org/1999/xlink" x="0px" y="0px"
	 viewBox="0 0 60 60" style="enable-background:new 0 0 60 60;" xml:space="preserve" fill="#fff">
	<path class="svg-icon" d="M41.5,16.8h-7.4c-1,0-1.8,0.8-1.8,1.8V26c0,1,0.8,1.8,1.8,1.8h7.4c1,0,1.8-0.8,1.8-1.8v-7.4
		C43.3,17.6,42.5,16.8,41.5,16.8z M36.8,25.9c-0.9,0-1.7-0.8-1.7-1.7s0.8-1.7,1.7-1.7c0.9,0,1.7,0.8,1.7,1.7S37.8,25.9,36.8,25.9z"/>
	<path class="svg-icon" d="M43.1,36.6h1.6c2.1,0,2.3-1.4,2.3-2v-3.7c0.5-0.3,0.9-0.8,0.9-1.5c0-0.9-0.8-1.7-1.7-1.7
		c-0.9,0-1.7,0.8-1.7,1.7c0,0.6,0.3,1.2,0.8,1.5v3.7c0,0.2,0,0.4-0.7,0.4h-1.6c-0.5,0-0.8,0.4-0.8,0.8S42.6,36.6,43.1,36.6z"/>
	<path class="svg-icon" d="M17.1,36.6h-1.6c-2.1,0-2.3-1.4-2.3-2v-3.7c-0.5-0.3-0.9-0.8-0.9-1.5c0-0.9,0.8-1.7,1.7-1.7
		c0.9,0,1.7,0.8,1.7,1.7c0,0.6-0.3,1.2-0.8,1.5v3.7c0,0.2,0,0.4,0.7,0.4h1.6c0.5,0,0.8,0.4,0.8,0.8S17.5,36.6,17.1,36.6z"/>
	<path class="svg-icon" d="M41.7,30h-10c-0.9,0-1.6-0.7-1.6-1.6v-10c0-0.9-0.7-1.6-1.6-1.6h-10c-0.9,0-1.6,0.7-1.6,1.6V30v11.6
		c0,0.9,0.7,1.6,1.6,1.6h1.1c0.4,0,0.7,0.1,1,0.4l1.2,1.2l1.1,1.1c0.4,0.4,0.9,0.4,1.3,0l1.1-1.1l1.2-1.2c0.3-0.3,0.6-0.4,1-0.4h14.4
		c0.9,0,1.6-0.7,1.6-1.6v-10C43.3,30.7,42.6,30,41.7,30z M21.7,24.2c0-0.9,0.8-1.7,1.7-1.7c0.9,0,1.7,0.8,1.7,1.7s-0.8,1.7-1.7,1.7
		C22.4,25.9,21.7,25.2,21.7,24.2z M36.8,36.3c-0.1,0.1-2.5,1.9-6.6,1.9H30c-4,0-6.5-1.8-6.6-1.9c-0.4-0.3-0.4-0.8-0.2-1.2
		c0.3-0.4,0.8-0.4,1.2-0.2c0,0,2.1,1.5,5.6,1.5h0.2c3.5,0,5.5-1.5,5.6-1.5c0.4-0.3,0.9-0.2,1.1,0.2C37.2,35.5,37.1,36,36.8,36.3z"/>
</svg>
