<?xml version="1.0" encoding="utf-8"?>
<!-- Generator: Adobe Illustrator 26.4.1, SVG Export Plug-In . SVG Version: 6.00 Build 0)  -->
<svg version="1.1" id="Livello_1" xmlns="http://www.w3.org/2000/svg" xmlns:xlink="http://www.w3.org/1999/xlink" x="0px" y="0px"
	 viewBox="0 0 18 18" style="enable-background:new 0 0 18 18;" xml:space="preserve">
<style type="text/css">
	.st0{fill:none;stroke:#000000;stroke-linecap:round;stroke-linejoin:round;}
</style>
<g transform="translate(0,-952.36223)">
	<path class="st0" d="M9.9,964.1l2.5,0v1.4l2.8-2.8l-2.8-2.8v1.4h-5v1.4L4.6,960l2.8-2.8v1.4l2.5,0"/>
</g>
<line class="st0" x1="4.9" y1="2.8" x2="6.6" y2="2.8"/>
<circle class="st0" cx="5.5" cy="15.5" r="0.3"/>
<path d="M9.6,13v2.5c0,0.5-0.3,0.9-0.8,0.9H2.7c-0.5,0-0.9-0.4-0.9-0.9V2.6c0-0.5,0.4-0.9,0.9-0.9h6.2c0.5,0,0.8,0.4,0.8,0.9v2.2
	c0,0.1,0,0.1,0.1,0.2c0.2,0.2,0.6,0.3,0.8,0c0,0,0.1-0.1,0.1-0.2c0-0.1,0-0.3,0-0.4c0-0.6,0-1.2,0-1.8c0-1,0-1.1-0.1-1.3
	c-0.2-0.4-0.6-0.5-0.9-0.6c-2.5,0-5.1,0-7.6,0c-0.6,0-1.1,0.5-1.1,1.1v14.6c0,0.6,0.5,1.1,1.1,1.1h7.5c0.6,0,1.1-0.5,1.1-1.1l0-3.4
	c0,0,0-0.1-0.1-0.2c-0.2-0.3-0.7-0.3-0.9,0C9.6,12.9,9.6,12.9,9.6,13z"/>
<path d="M9.6,13"/>
</svg>
