<?xml version="1.0" encoding="utf-8"?>
<!-- Generator: Adobe Illustrator 26.4.1, SVG Export Plug-In . SVG Version: 6.00 Build 0)  -->
<svg version="1.1" id="Livello_1" xmlns="http://www.w3.org/2000/svg" xmlns:xlink="http://www.w3.org/1999/xlink" x="0px" y="0px"
	 viewBox="0 0 18 18" style="enable-background:new 0 0 18 18;" xml:space="preserve">
<path d="M8.8,10.1c-0.8,0.7-1.9,1.1-3,1.1s-2.2-0.4-3-1.1c-1.4,0.7-2.4,2.1-2.4,3.8v1.9c0,0.4,0.3,0.7,0.7,0.7h9.5
	c0.4,0,0.7-0.3,0.7-0.7v-1.9C11.3,12.2,10.3,10.7,8.8,10.1z"/>
<path d="M5.8,9.6c1.8,0,3.3-1.5,3.3-3.3S7.6,3.1,5.8,3.1C4,3.1,2.6,4.5,2.6,6.3S4,9.6,5.8,9.6z"/>
<g>
	<path d="M12.3,7.8c-0.1,0-0.1,0-0.2,0c-0.1-0.1-0.2-0.2-0.2-0.3v-1c-0.9,0-1.7-0.7-1.7-1.7V2.2c0-0.9,0.7-1.7,1.7-1.7h4
		c0.9,0,1.7,0.7,1.7,1.7v2.7c0,0.9-0.7,1.7-1.7,1.7h-1.6l-1.9,1.3C12.4,7.8,12.3,7.8,12.3,7.8z M11.9,1.2c-0.6,0-1,0.4-1,1v2.7
		c0,0.6,0.4,1,1,1h0.3c0.2,0,0.3,0.1,0.3,0.3v0.7l1.5-1c0.1,0,0.1,0,0.2,0h1.7c0.6,0,1-0.4,1-1V2.2c0-0.6-0.4-1-1-1H11.9z"/>
	<path d="M13.9,4.8c-0.2,0-0.3-0.1-0.3-0.3v-2c0-0.2,0.1-0.3,0.3-0.3c0.2,0,0.3,0.1,0.3,0.3v2C14.3,4.7,14.1,4.8,13.9,4.8z"/>
	<path d="M15.3,4.2c-0.2,0-0.3-0.1-0.3-0.3V3.2c0-0.2,0.1-0.3,0.3-0.3c0.2,0,0.3,0.1,0.3,0.3v0.7C15.6,4,15.5,4.2,15.3,4.2z"/>
	<path d="M12.6,4.2c-0.2,0-0.3-0.1-0.3-0.3V3.2c0-0.2,0.1-0.3,0.3-0.3c0.2,0,0.3,0.1,0.3,0.3v0.7C12.9,4,12.8,4.2,12.6,4.2z"/>
</g>
</svg>
