<?xml version="1.0" encoding="utf-8"?>
<svg xmlns="http://www.w3.org/2000/svg" xmlns:xlink="http://www.w3.org/1999/xlink"
     viewBox="0 0 18 18" version="1.1" id="Livello_1">
  <rect x="2.6" y="2.6" width="4.3" height="4.3" />
  <path d="M1,2.6C1,1.7,1.7,1,2.6,1h4.3c0.9,0,1.6,0.7,1.6,1.6v4.3c0,0.9-0.7,1.6-1.6,1.6H2.6C1.7,8.4,1,7.7,1,6.9V2.6z" />
  <rect x="2.6" y="11.1" width="4.3" height="4.3" />
  <path d="M1,11.1c0-0.9,0.7-1.6,1.6-1.6h4.3c0.9,0,1.6,0.7,1.6,1.6v4.3c0,0.9-0.7,1.6-1.6,1.6H2.6C1.7,17,1,16.3,1,15.4V11.1z" />
  <rect x="11.1" y="2.6" width="4.3" height="4.3" />
  <path d="M11.1,1c-0.9,0-1.6,0.7-1.6,1.6v4.3c0,0.9,0.7,1.6,1.6,1.6h4.3c0.9,0,1.6-0.7,1.6-1.6V2.6C17,1.7,16.3,1,15.4,1H11.1z" />
  <circle cx="13.3" cy="13.3" r="2.1" />
  <circle cx="13.3" cy="13.3" r="3.7" />
</svg>
