<?xml version="1.0" encoding="utf-8"?>
<!-- Generator: Adobe Illustrator 26.4.1, SVG Export Plug-In . SVG Version: 6.00 Build 0)  -->
<svg version="1.1" id="Livello_1" xmlns="http://www.w3.org/2000/svg" xmlns:xlink="http://www.w3.org/1999/xlink" x="0px" y="0px"
	 viewBox="0 0 18 18" style="enable-background:new 0 0 18 18;" xml:space="preserve">
<path d="M12,1.1H6c-3.1,0-5.6,2.7-5.6,6.1c0,3,1.9,5.5,4.6,6c0.2,0,0.3,0.2,0.3,0.4v3.8l4.5-4c0.1-0.1,0.2-0.1,0.3-0.1H12
	c3.1,0,5.6-2.7,5.6-6.1C17.5,3.8,15,1.1,12,1.1z M4.5,8.4c0,0.2-0.2,0.3-0.3,0.3S3.8,8.6,3.8,8.4V5.9c0-0.2,0.2-0.3,0.3-0.3
	s0.3,0.1,0.3,0.3V8.4z M6,8.8C6,9,5.9,9.1,5.7,9.1C5.5,9.1,5.3,9,5.3,8.8V5.5c0-0.2,0.2-0.3,0.3-0.3C5.9,5.2,6,5.3,6,5.5V8.8z
	 M7.6,10.5c0,0.2-0.2,0.3-0.3,0.3s-0.3-0.1-0.3-0.3V3.8c0-0.2,0.2-0.3,0.3-0.3s0.3,0.1,0.3,0.3V10.5z M9.1,9.7C9.1,9.8,9,10,8.8,10
	S8.4,9.8,8.4,9.7v-5c0-0.2,0.2-0.3,0.3-0.3s0.3,0.1,0.3,0.3V9.7z M10.7,8c0,0.2-0.2,0.3-0.3,0.3C10.2,8.3,10,8.2,10,8V6.3
	C10,6.2,10.2,6,10.3,6c0.2,0,0.3,0.1,0.3,0.3V8z M12.2,9.3c0,0.2-0.2,0.3-0.3,0.3s-0.3-0.1-0.3-0.3V5.1c0-0.2,0.2-0.3,0.3-0.3
	s0.3,0.1,0.3,0.3V9.3z M13.8,8.4c0,0.2-0.2,0.3-0.3,0.3s-0.3-0.1-0.3-0.3V5.9c0-0.2,0.2-0.3,0.3-0.3s0.3,0.1,0.3,0.3V8.4z"/>
</svg>
