<?xml version="1.0" encoding="utf-8"?>
<!-- Generator: Adobe Illustrator 26.4.1, SVG Export Plug-In . SVG Version: 6.00 Build 0)  -->
<svg version="1.1" id="Livello_1" xmlns="http://www.w3.org/2000/svg" xmlns:xlink="http://www.w3.org/1999/xlink" x="0px" y="0px"
	 viewBox="0 0 18 18" style="enable-background:new 0 0 18 18;" xml:space="preserve">
<g>
	<path d="M15.6,4.1h-3.3V2.9c0-0.3-0.3-0.6-0.6-0.6c-0.3,0-0.6,0.3-0.6,0.6v1.2H2.4c-1,0-1.8,0.8-1.8,1.8v5.8c0,1,0.8,1.8,1.8,1.8
		h8.7v1.2c0,0.3,0.3,0.6,0.6,0.6c0.3,0,0.6-0.3,0.6-0.6v-1.2h3.3c1,0,1.8-0.8,1.8-1.8V5.9C17.4,4.9,16.6,4.1,15.6,4.1z M11.1,12.4
		H2.4c-0.3,0-0.6-0.3-0.6-0.6V5.9c0-0.3,0.3-0.6,0.6-0.6h8.7V12.4z M16.2,11.8c0,0.3-0.3,0.6-0.6,0.6h-3.3v-7h3.3
		c0.3,0,0.6,0.3,0.6,0.6V11.8z"/>
	<path d="M3.6,10.3c0.3,0,0.6-0.3,0.6-0.6V8c0-0.3-0.3-0.6-0.6-0.6S3,7.7,3,8v1.6C3,10,3.3,10.3,3.6,10.3z"/>
	<path d="M6.3,10.9c0.3,0,0.6-0.3,0.6-0.6V7.4c0-0.3-0.3-0.6-0.6-0.6C6,6.8,5.7,7.1,5.7,7.4v2.8C5.7,10.6,6,10.9,6.3,10.9z"/>
	<path d="M9,11.5c0.3,0,0.6-0.3,0.6-0.6V6.8c0-0.3-0.3-0.6-0.6-0.6S8.4,6.5,8.4,6.8v4.1C8.4,11.2,8.7,11.5,9,11.5z"/>
	<path d="M14.4,7.4c-0.3,0-0.6,0.3-0.6,0.6v1.6c0,0.3,0.3,0.6,0.6,0.6c0.3,0,0.6-0.3,0.6-0.6V8C15,7.7,14.7,7.4,14.4,7.4z"/>
</g>
</svg>
