<?xml version="1.0" encoding="UTF-8"?>
<svg id="Livello_1" data-name="Livello 1" xmlns="http://www.w3.org/2000/svg" version="1.1" viewBox="0 0 52 52">
  <defs>
    <style>
      .cls-1, .cls-2 {
        fill: #000;
        stroke-width: 0px;
      }

      .cls-2 {
        fill-rule: evenodd;
      }
    </style>
  </defs>
  <path class="cls-1" d="M38.6,18.4v-6h-5.8v-5.8h5.8V1h5.8v5.8h6v5.8h-5.8v5.8h-6Z"/>
  <path class="cls-1" d="M11.2,6.6h0Z"/>
  <path class="cls-1" d="M16.2,28.2c-1.5-.6-1.5-2.7,0-3.3,3.8-1.4,6.8-4.4,8.2-8.2.6-1.5,2.7-1.5,3.3,0,1.4,3.8,4.4,6.8,8.2,8.2,1.5.6,1.5,2.7,0,3.3-3.8,1.4-6.8,4.4-8.2,8.2-.6,1.5-2.7,1.5-3.3,0-1.4-3.8-4.4-6.8-8.2-8.2Z"/>
  <path class="cls-2" d="M12.3,2.7h7.3c1.1,0,1.9.9,1.9,1.9s-.9,1.9-1.9,1.9h-7.2c-1.5,0-2.5,0-3.2,0-.7,0-1.1.2-1.3.3-.6.3-1.1.8-1.4,1.4-.1.2-.2.6-.3,1.3,0,.8,0,1.8,0,3.2v7.2c0,1.1-.9,1.9-1.9,1.9s-1.9-.9-1.9-1.9v-7.3c0-1.4,0-2.5,0-3.5,0-1,.3-1.9.7-2.8.7-1.3,1.8-2.4,3.1-3.1.9-.4,1.8-.6,2.8-.7.9,0,2.1,0,3.5,0Z"/>
  <path class="cls-2" d="M12.3,50.4h7.3c1.1,0,1.9-.9,1.9-1.9s-.9-1.9-1.9-1.9h-7.2c-1.5,0-2.5,0-3.2,0-.7,0-1.1-.2-1.3-.3-.6-.3-1.1-.8-1.4-1.4-.1-.2-.2-.6-.3-1.3,0-.8,0-1.8,0-3.2v-7.2c0-1.1-.9-1.9-1.9-1.9s-1.9.9-1.9,1.9v7.3c0,1.4,0,2.5,0,3.5,0,1,.3,1.9.7,2.8.7,1.3,1.8,2.4,3.1,3.1.9.4,1.8.6,2.8.7.9,0,2.1,0,3.5,0Z"/>
  <path class="cls-2" d="M39.7,50.4h-7.3c-1.1,0-1.9-.9-1.9-1.9s.9-1.9,1.9-1.9h7.2c1.5,0,2.5,0,3.2,0,.7,0,1.1-.2,1.3-.3.6-.3,1.1-.8,1.4-1.4.1-.2.2-.6.3-1.3,0-.8,0-1.8,0-3.2v-7.2c0-1.1.9-1.9,1.9-1.9s1.9.9,1.9,1.9v7.3c0,1.4,0,2.5,0,3.5,0,1-.3,1.9-.7,2.8-.7,1.3-1.8,2.4-3.1,3.1-.9.4-1.8.6-2.8.7-.9,0-2.1,0-3.5,0Z"/>
</svg>