<?xml version="1.0" encoding="utf-8"?>
<!-- Generator: Adobe Illustrator 26.4.1, SVG Export Plug-In . SVG Version: 6.00 Build 0)  -->
<svg version="1.1" id="Livello_1" xmlns="http://www.w3.org/2000/svg" xmlns:xlink="http://www.w3.org/1999/xlink" x="0px" y="0px"
	 viewBox="0 0 52 52" style="enable-background:new 0 0 52 52;" xml:space="preserve">
<style type="text/css">
	.st0{stroke:#000000;stroke-width:0.75;stroke-miterlimit:10;}
	.st1{stroke:#000000;stroke-miterlimit:10;}
</style>
<path d="M34.2,16.3v-4.7c-1.3,0-2.5,0-3.8,0c-0.2,0-0.5,0-0.7,0c0-1.5,0-3,0-4.5h4.5V2.7h4.5v4.5h4.7v4.5h-4.5v4.5L34.2,16.3z"/>
<path d="M11.2,6.6L11.2,6.6z"/>
<path class="st0" d="M29.3,15.3v14c0,2.8-2.2,5-5,5s-5-2.2-5-5v-14c0-2.8,2.2-5,5-5c0.9,0,0.9-2,0-2c-3.9,0-7,3.1-7,7v14
	c0,3.9,3.1,7,7,7s7-3.1,7-7v-14C31.3,14.9,29.3,14.9,29.3,15.3z"/>
<path class="st1" d="M23.1,41.8v4.5h-7.8c-0.6,0-1.1,0.5-1.1,1.1s0.5,1.1,1.1,1.1h17.8c0.6,0,1.1-0.5,1.1-1.1s-0.5-1.1-1.1-1.1h-7.8
	v-4.5c6.3-0.6,11.1-5.9,11.2-12.2v-6.7c0-0.6-0.5-1.1-1.1-1.1s-1.1,0.5-1.1,1.1v6.7c0,5.5-4.5,10-10,10s-10-4.5-10-10v-6.7
	c0-0.6-0.5-1.1-1.1-1.1c-0.6,0-1.1,0.5-1.1,1.1v6.7C12,35.9,16.8,41.2,23.1,41.8z"/>
</svg>
