<svg xmlns="http://www.w3.org/2000/svg" xmlns:xlink="http://www.w3.org/1999/xlink" x="0px" y="0px" viewBox="0 0 16 16">
    <path fill="currentColor" fill-rule="evenodd" clip-rule="evenodd" d="M2.1,9.3c0.5,0.6,1.2,1.3,2.3,2.4c1.1,1.1,1.8,1.8,2.4,2.3c0.6,0.4,0.9,0.5,1.1,0.6
        c0.1,0,0.2,0,0.3,0c0.2,0,0.5-0.1,1.1-0.6c0.6-0.5,1.3-1.2,2.4-2.3c1.1-1.1,1.8-1.8,2.3-2.4c0.4-0.6,0.5-0.9,0.6-1.1
        c0-0.1,0-0.2,0-0.3c0-0.2-0.1-0.5-0.6-1.1c-0.5-0.6-1.2-1.3-2.3-2.4c-1.1-1.1-1.8-1.8-2.4-2.3C8.7,1.6,8.4,1.5,8.1,1.5
        c-0.1,0-0.2,0-0.3,0c-0.2,0-0.5,0.1-1.1,0.6C6.1,2.5,5.4,3.3,4.3,4.3S2.5,6.1,2.1,6.7C1.6,7.3,1.5,7.6,1.5,7.9c0,0.1,0,0.2,0,0.3
        C1.5,8.4,1.6,8.7,2.1,9.3z M7.8,0C6.4,0.1,5.4,1.2,3.3,3.3C1.2,5.4,0.1,6.4,0,7.8c0,0.2,0,0.3,0,0.5c0.1,1.3,1.1,2.4,3.3,4.5
        c2.1,2.1,3.2,3.2,4.5,3.3c0.2,0,0.3,0,0.5,0c1.3-0.1,2.4-1.2,4.5-3.3c2.1-2.1,3.2-3.2,3.3-4.5c0-0.2,0-0.3,0-0.5
        c-0.1-1.3-1.2-2.4-3.3-4.5S9.6,0.1,8.2,0C8.1,0,7.9,0,7.8,0L7.8,0z M5,5.8C5,5.3,5.3,5,5.8,5s0.8,0.3,0.8,0.8v4.5
        c0,0.4-0.3,0.8-0.8,0.8S5,10.7,5,10.2V5.8z M10.8,5H10C9.1,5,8.6,5,8.3,5.3C8,5.6,8,6.1,8,7v3.2C8,10.7,8.3,11,8.8,11
        s0.8-0.3,0.8-0.8V9h0.8C10.7,9,11,8.7,11,8.2c0-0.4-0.3-0.8-0.8-0.8H9.5c0-0.5,0-0.7,0.1-0.9c0.1-0.1,0.4-0.1,0.9-0.1h0.2
        c0.4,0,0.8-0.3,0.8-0.8S11.2,5,10.8,5z"/>
</svg>
