<svg
  xmlns="http://www.w3.org/2000/svg"
  xmlns:xlink="http://www.w3.org/1999/xlink"
  height="16"
  width="16"
  viewBox="0 0 16 16"
>
    <path
        d="M12.63 13c.097 0 .194.023.281.066l1.74.87a.63.63 0 0 1 .001 1.127l-1.74.87A.63.63 0 0 1 12 15.37V15H1.5a.5.5 0 0 1 0-1l10.5-.001v-.37a.63.63 0 0 1 .63-.629zM8.168 0c.508 0 .96.32 1.13.798l3.653 10.268a.7.7 0 0 1-.659.934h-.115a1.2 1.2 0 0 1-1.143-.834l-.739-2.308a.6.6 0 0 0-.571-.417H6.242a.601.601 0 0 0-.573.42l-.72 2.298A1.2 1.2 0 0 1 3.804 12h-.102a.693.693 0 0 1-.653-.926L6.703.798A1.2 1.2 0 0 1 7.833 0h.335zm-.246 2.52a.284.284 0 0 0-.196.2c-.125.46-.242.847-.35 1.163l-.768 2.326a.6.6 0 0 0 .569.788h1.665a.6.6 0 0 0 .57-.787l-.81-2.466a17.903 17.903 0 0 1-.267-.837l-.057-.193a.286.286 0 0 0-.356-.194z"
    />
</svg>

