<svg version="1.0" xmlns="http://www.w3.org/2000/svg"
 width="310.000000pt" height="310.000000pt" viewBox="0 0 310.000000 310.000000"
 preserveAspectRatio="xMidYMid meet">
<g fill="#0684ce" transform="translate(0.000000,310.000000) scale(0.100000,-0.100000)" stroke="none">
<path d="M1360 3088 c-389 -65 -647 -192 -901 -447 -258 -258 -384 -516 -448
-912 -40 -248 25 -613 154 -871 76 -152 159 -264 294 -399 185 -185 363 -297
591 -372 351 -116 649 -116 1000 0 228 75 406 187 591 372 185 185 297 363
372 591 116 351 116 649 0 1000 -75 228 -187 406 -372 591 -258 258 -516 384
-912 448 -78 13 -291 12 -369 -1z m420 -780 c0 -40 -5 -161 -10 -268 -5 -107
-16 -357 -25 -555 -8 -198 -16 -380 -17 -404 l-2 -45 59 2 c87 4 274 22 317
32 20 4 39 6 41 3 3 -2 -6 -45 -18 -94 -13 -50 -26 -114 -30 -142 -4 -29 -9
-60 -11 -69 -5 -17 -37 -18 -483 -18 l-478 0 -7 137 c-3 76 -11 273 -16 438
-10 298 -44 911 -55 992 -4 24 -3 47 0 53 4 6 138 10 371 10 l364 0 0 -72z"/>
</g>
</svg>