<svg id="Livello_1" xmlns="http://www.w3.org/2000/svg" height="24" viewBox="0 0 22.1 22.65" width="24">
  <g>
    <path fill="currentColor" d="M6.07,1.04C5.41,.36,4.5-.01,3.56,0c-.95-.01-1.85,.36-2.51,1.05C.36,1.7-.01,2.61,0,3.56c-.01,.95,.36,1.85,1.04,2.51,.66,.68,1.57,1.06,2.51,1.04,.95,.01,1.85-.36,2.51-1.05,.68-.66,1.06-1.57,1.04-2.51,.01-.95-.36-1.85-1.04-2.51Zm-1.26,3.77c-.33,.34-.78,.53-1.26,.52-.47,0-.93-.18-1.26-.52-.34-.33-.53-.78-.52-1.26,0-.47,.18-.93,.52-1.26,.33-.34,.78-.53,1.26-.52,.47,0,.93,.18,1.26,.52,.34,.33,.53,.78,.52,1.26,0,.47-.18,.93-.52,1.26Z"/>
    <path fill="currentColor" d="M13.56,1.04C12.91,.36,12-.01,11.05,0c-.95-.01-1.85,.36-2.51,1.05-.68,.66-1.06,1.57-1.04,2.51-.01,.95,.36,1.85,1.04,2.51,.66,.68,1.57,1.06,2.51,1.04,.95,.01,1.85-.36,2.51-1.05,.68-.66,1.06-1.57,1.04-2.51,.01-.95-.36-1.85-1.04-2.51Zm-1.26,3.77c-.33,.34-.78,.53-1.26,.52-.47,0-.93-.18-1.26-.52-.34-.33-.53-.78-.52-1.26,0-.47,.18-.93,.52-1.26,.33-.34,.78-.53,1.26-.52,.47,0,.93,.18,1.26,.52,.34,.33,.53,.78,.52,1.26,0,.47-.18,.93-.52,1.26Z"/>
    <path fill="currentColor" d="M21.06,1.04C20.4,.36,19.49-.01,18.55,0c-.95-.01-1.85,.36-2.51,1.05-.68,.66-1.06,1.57-1.04,2.51-.01,.95,.36,1.85,1.04,2.51,.66,.68,1.57,1.06,2.51,1.04,.95,.01,1.85-.36,2.51-1.05,.68-.66,1.06-1.57,1.04-2.51,.01-.95-.36-1.85-1.04-2.51Zm-1.26,3.77c-.33,.34-.78,.53-1.26,.52-.47,0-.93-.18-1.26-.52-.34-.33-.53-.78-.52-1.26,0-.47,.18-.93,.52-1.26,.33-.34,.78-.53,1.26-.52,.47,0,.93,.18,1.26,.52,.34,.33,.53,.78,.52,1.26,0,.47-.18,.93-.52,1.26Z"/>
  </g>
  <g>
    <path fill="currentColor" d="M6.07,8.82c-.66-.68-1.57-1.06-2.51-1.04-.95-.01-1.85,.36-2.51,1.05C.36,9.47-.01,10.38,0,11.33c-.01,.95,.36,1.85,1.04,2.51,.66,.68,1.57,1.06,2.51,1.04,.95,.01,1.85-.36,2.51-1.05,.68-.66,1.06-1.57,1.04-2.51,.01-.95-.36-1.85-1.04-2.51Zm-1.26,3.77c-.33,.34-.78,.53-1.26,.52-.47,0-.93-.18-1.26-.52-.34-.33-.53-.78-.52-1.26,0-.47,.18-.93,.52-1.26,.33-.34,.78-.53,1.26-.52,.47,0,.93,.18,1.26,.52,.34,.33,.53,.78,.52,1.26,0,.47-.18,.93-.52,1.26Z"/>
    <path fill="currentColor" d="M13.56,8.82c-.66-.68-1.57-1.06-2.51-1.04-.95-.01-1.85,.36-2.51,1.05-.68,.66-1.06,1.57-1.04,2.51-.01,.95,.36,1.85,1.04,2.51,.66,.68,1.57,1.06,2.51,1.04,.95,.01,1.85-.36,2.51-1.05,.68-.66,1.06-1.57,1.04-2.51,.01-.95-.36-1.85-1.04-2.51Zm-1.26,3.77c-.33,.34-.78,.53-1.26,.52-.47,0-.93-.18-1.26-.52-.34-.33-.53-.78-.52-1.26,0-.47,.18-.93,.52-1.26,.33-.34,.78-.53,1.26-.52,.47,0,.93,.18,1.26,.52,.34,.33,.53,.78,.52,1.26,0,.47-.18,.93-.52,1.26Z"/>
    <path fill="currentColor" d="M21.06,8.82c-.66-.68-1.57-1.06-2.51-1.04-.95-.01-1.85,.36-2.51,1.05-.68,.66-1.06,1.57-1.04,2.51-.01,.95,.36,1.85,1.04,2.51,.66,.68,1.57,1.06,2.51,1.04,.95,.01,1.85-.36,2.51-1.05,.68-.66,1.06-1.57,1.04-2.51,.01-.95-.36-1.85-1.04-2.51Zm-1.26,3.77c-.33,.34-.78,.53-1.26,.52-.47,0-.93-.18-1.26-.52-.34-.33-.53-.78-.52-1.26,0-.47,.18-.93,.52-1.26,.33-.34,.78-.53,1.26-.52,.47,0,.93,.18,1.26,.52,.34,.33,.53,.78,.52,1.26,0,.47-.18,.93-.52,1.26Z"/>
  </g>
  <g>
    <path fill="currentColor" d="M6.07,16.59c-.66-.68-1.57-1.06-2.51-1.04-.95-.01-1.85,.36-2.51,1.05C.36,17.24-.01,18.15,0,19.1c-.01,.95,.36,1.85,1.04,2.51,.66,.68,1.57,1.06,2.51,1.04,.95,.01,1.85-.36,2.51-1.05,.68-.66,1.06-1.57,1.04-2.51,.01-.95-.36-1.85-1.04-2.51Zm-1.26,3.77c-.33,.34-.78,.53-1.26,.52-.47,0-.93-.18-1.26-.52-.34-.33-.53-.78-.52-1.26,0-.47,.18-.93,.52-1.26,.33-.34,.78-.53,1.26-.52,.47,0,.93,.18,1.26,.52,.34,.33,.53,.78,.52,1.26,0,.47-.18,.93-.52,1.26Z"/>
    <path fill="currentColor" d="M13.56,16.59c-.66-.68-1.57-1.06-2.51-1.04-.95-.01-1.85,.36-2.51,1.05-.68,.66-1.06,1.57-1.04,2.51-.01,.95,.36,1.85,1.04,2.51,.66,.68,1.57,1.06,2.51,1.04,.95,.01,1.85-.36,2.51-1.05,.68-.66,1.06-1.57,1.04-2.51,.01-.95-.36-1.85-1.04-2.51Zm-1.26,3.77c-.33,.34-.78,.53-1.26,.52-.47,0-.93-.18-1.26-.52-.34-.33-.53-.78-.52-1.26,0-.47,.18-.93,.52-1.26,.33-.34,.78-.53,1.26-.52,.47,0,.93,.18,1.26,.52,.34,.33,.53,.78,.52,1.26,0,.47-.18,.93-.52,1.26Z"/>
    <path fill="currentColor" d="M21.06,16.59c-.66-.68-1.57-1.06-2.51-1.04-.95-.01-1.85,.36-2.51,1.05-.68,.66-1.06,1.57-1.04,2.51-.01,.95,.36,1.85,1.04,2.51,.66,.68,1.57,1.06,2.51,1.04,.95,.01,1.85-.36,2.51-1.05,.68-.66,1.06-1.57,1.04-2.51,.01-.95-.36-1.85-1.04-2.51Zm-1.26,3.77c-.33,.34-.78,.53-1.26,.52-.47,0-.93-.18-1.26-.52-.34-.33-.53-.78-.52-1.26,0-.47,.18-.93,.52-1.26,.33-.34,.78-.53,1.26-.52,.47,0,.93,.18,1.26,.52,.34,.33,.53,.78,.52,1.26,0,.47-.18,.93-.52,1.26Z"/>
  </g>
</svg>