<svg id="Livello_1" xmlns="http://www.w3.org/2000/svg" height="24" viewBox="0 0 22.1 22.65" width="24">
  <g>
	<g>
		<path fill="currentColor" d="M7.6,3C7.1,2.4,6.3,2.1,5.5,2.1C4.6,2.1,3.8,2.4,3.3,3C2.7,3.6,2.3,4.4,2.4,5.2c0,0.8,0.3,1.6,0.9,2.2
			C3.8,8,4.6,8.3,5.5,8.3c0.8,0,1.6-0.3,2.2-0.9C8.2,6.8,8.6,6,8.6,5.2C8.6,4.4,8.2,3.6,7.6,3z M6.6,6.3C6.3,6.6,5.9,6.8,5.5,6.8
			C5,6.8,4.6,6.6,4.4,6.3C4.1,6,3.9,5.6,3.9,5.2c0-0.4,0.2-0.8,0.5-1.1C4.6,3.8,5,3.7,5.5,3.7c0.4,0,0.8,0.2,1.1,0.5
			C6.9,4.4,7,4.8,7,5.2C7,5.6,6.9,6,6.6,6.3z"/>
		<path fill="currentColor" d="M14.2,3c-0.6-0.6-1.4-0.9-2.2-0.9c-0.8,0-1.6,0.3-2.2,0.9C9.2,3.6,8.9,4.4,8.9,5.2c0,0.8,0.3,1.6,0.9,2.2
			C10.4,8,11.2,8.3,12,8.3c0.8,0,1.6-0.3,2.2-0.9c0.6-0.6,0.9-1.4,0.9-2.2C15.1,4.4,14.8,3.6,14.2,3z M13.1,6.3
			c-0.3,0.3-0.7,0.5-1.1,0.5c-0.4,0-0.8-0.2-1.1-0.5c-0.3-0.3-0.5-0.7-0.5-1.1c0-0.4,0.2-0.8,0.5-1.1c0.3-0.3,0.7-0.5,1.1-0.5
			c0.4,0,0.8,0.2,1.1,0.5c0.3,0.3,0.5,0.7,0.5,1.1C13.6,5.6,13.4,6,13.1,6.3z"/>
		<path fill="currentColor" d="M20.7,3c-0.6-0.6-1.4-0.9-2.2-0.9c-0.8,0-1.6,0.3-2.2,0.9c-0.6,0.6-0.9,1.4-0.9,2.2c0,0.8,0.3,1.6,0.9,2.2
			c0.6,0.6,1.4,0.9,2.2,0.9c0.8,0,1.6-0.3,2.2-0.9c0.6-0.6,0.9-1.4,0.9-2.2C21.7,4.4,21.3,3.6,20.7,3z M19.6,6.3
			c-0.3,0.3-0.7,0.5-1.1,0.5c-0.4,0-0.8-0.2-1.1-0.5C17.1,6,17,5.6,17,5.2c0-0.4,0.2-0.8,0.5-1.1c0.3-0.3,0.7-0.5,1.1-0.5
			c0.4,0,0.8,0.2,1.1,0.5c0.3,0.3,0.5,0.7,0.5,1.1C20.1,5.6,19.9,6,19.6,6.3z"/>
	</g>
	<g>
		<path fill="currentColor" d="M7.6,9.8C7.1,9.2,6.3,8.9,5.5,8.9c-0.8,0-1.6,0.3-2.2,0.9c-0.6,0.6-0.9,1.4-0.9,2.2c0,0.8,0.3,1.6,0.9,2.2
			c0.6,0.6,1.4,0.9,2.2,0.9c0.8,0,1.6-0.3,2.2-0.9c0.6-0.6,0.9-1.4,0.9-2.2C8.6,11.2,8.2,10.4,7.6,9.8z M6.6,13.1
			c-0.3,0.3-0.7,0.5-1.1,0.5c-0.4,0-0.8-0.2-1.1-0.5c-0.3-0.3-0.5-0.7-0.5-1.1c0-0.4,0.2-0.8,0.5-1.1c0.3-0.3,0.7-0.5,1.1-0.5
			c0.4,0,0.8,0.2,1.1,0.5C6.9,11.2,7,11.6,7,12C7,12.4,6.9,12.8,6.6,13.1z"/>
		<path fill="currentColor" d="M14.2,9.8c-0.6-0.6-1.4-0.9-2.2-0.9c-0.8,0-1.6,0.3-2.2,0.9c-0.6,0.6-0.9,1.4-0.9,2.2c0,0.8,0.3,1.6,0.9,2.2
			c0.6,0.6,1.4,0.9,2.2,0.9c0.8,0,1.6-0.3,2.2-0.9c0.6-0.6,0.9-1.4,0.9-2.2C15.1,11.2,14.8,10.4,14.2,9.8z M13.1,13.1
			c-0.3,0.3-0.7,0.5-1.1,0.5c-0.4,0-0.8-0.2-1.1-0.5c-0.3-0.3-0.5-0.7-0.5-1.1c0-0.4,0.2-0.8,0.5-1.1c0.3-0.3,0.7-0.5,1.1-0.5
			c0.4,0,0.8,0.2,1.1,0.5c0.3,0.3,0.5,0.7,0.5,1.1C13.6,12.4,13.4,12.8,13.1,13.1z"/>
		<path fill="currentColor" d="M20.7,9.8c-0.6-0.6-1.4-0.9-2.2-0.9c-0.8,0-1.6,0.3-2.2,0.9c-0.6,0.6-0.9,1.4-0.9,2.2c0,0.8,0.3,1.6,0.9,2.2
			c0.6,0.6,1.4,0.9,2.2,0.9c0.8,0,1.6-0.3,2.2-0.9c0.6-0.6,0.9-1.4,0.9-2.2C21.7,11.2,21.3,10.4,20.7,9.8z M19.6,13.1
			c-0.3,0.3-0.7,0.5-1.1,0.5c-0.4,0-0.8-0.2-1.1-0.5C17.1,12.8,17,12.4,17,12c0-0.4,0.2-0.8,0.5-1.1c0.3-0.3,0.7-0.5,1.1-0.5
			c0.4,0,0.8,0.2,1.1,0.5c0.3,0.3,0.5,0.7,0.5,1.1C20.1,12.4,19.9,12.8,19.6,13.1z"/>
	</g>
	<g>
		<path fill="currentColor" d="M7.6,16.6c-0.6-0.6-1.4-0.9-2.2-0.9c-0.8,0-1.6,0.3-2.2,0.9c-0.6,0.6-0.9,1.4-0.9,2.2c0,0.8,0.3,1.6,0.9,2.2
			c0.6,0.6,1.4,0.9,2.2,0.9c0.8,0,1.6-0.3,2.2-0.9c0.6-0.6,0.9-1.4,0.9-2.2C8.6,18,8.2,17.2,7.6,16.6z M6.6,19.9
			c-0.3,0.3-0.7,0.5-1.1,0.5c-0.4,0-0.8-0.2-1.1-0.5c-0.3-0.3-0.5-0.7-0.5-1.1c0-0.4,0.2-0.8,0.5-1.1c0.3-0.3,0.7-0.5,1.1-0.5
			c0.4,0,0.8,0.2,1.1,0.5C6.9,18,7,18.4,7,18.8C7,19.2,6.9,19.6,6.6,19.9z"/>
		<path fill="currentColor" d="M14.2,16.6c-0.6-0.6-1.4-0.9-2.2-0.9c-0.8,0-1.6,0.3-2.2,0.9c-0.6,0.6-0.9,1.4-0.9,2.2c0,0.8,0.3,1.6,0.9,2.2
			c0.6,0.6,1.4,0.9,2.2,0.9c0.8,0,1.6-0.3,2.2-0.9c0.6-0.6,0.9-1.4,0.9-2.2C15.1,18,14.8,17.2,14.2,16.6z M13.1,19.9
			c-0.3,0.3-0.7,0.5-1.1,0.5c-0.4,0-0.8-0.2-1.1-0.5c-0.3-0.3-0.5-0.7-0.5-1.1c0-0.4,0.2-0.8,0.5-1.1c0.3-0.3,0.7-0.5,1.1-0.5
			c0.4,0,0.8,0.2,1.1,0.5c0.3,0.3,0.5,0.7,0.5,1.1C13.6,19.2,13.4,19.6,13.1,19.9z"/>
		<path fill="currentColor" d="M20.7,16.6c-0.6-0.6-1.4-0.9-2.2-0.9c-0.8,0-1.6,0.3-2.2,0.9c-0.6,0.6-0.9,1.4-0.9,2.2c0,0.8,0.3,1.6,0.9,2.2
			c0.6,0.6,1.4,0.9,2.2,0.9c0.8,0,1.6-0.3,2.2-0.9c0.6-0.6,0.9-1.4,0.9-2.2C21.7,18,21.3,17.2,20.7,16.6z M19.6,19.9
			c-0.3,0.3-0.7,0.5-1.1,0.5c-0.4,0-0.8-0.2-1.1-0.5c-0.3-0.3-0.5-0.7-0.5-1.1c0-0.4,0.2-0.8,0.5-1.1c0.3-0.3,0.7-0.5,1.1-0.5
			c0.4,0,0.8,0.2,1.1,0.5c0.3,0.3,0.5,0.7,0.5,1.1C20.1,19.2,19.9,19.6,19.6,19.9z"/>
	</g>
</g>
</svg>
