<?xml version="1.0" encoding="utf-8"?>
<svg xmlns="http://www.w3.org/2000/svg" xmlns:xlink="http://www.w3.org/1999/xlink"
     viewBox="0 0 24 24" version="1.1" id="Livello_1">
  <path d="M3.7,16.6c0.4,0.3,0.9,0.5,1.4,0.7l-0.4,3.9c0,0.3,0.2,0.6,0.5,0.6h0.1c0.3,0,0.5-0.2,0.6-0.5l0.3-3.7
    c0.2,0.1,0.5,0.1,0.8,0.2C7.6,18,8.3,18.1,9,18.1c0.3,0,0.7,0,1,0c1.2-0.1,2.1-1.2,2-2.4c0-0.1,0-0.2,0-0.3c0-0.2,0.1-0.4,0.1-0.6
    l0.1-0.3c0.1-0.3,0.1-0.5-0.1-0.8c-0.1-0.2-0.3-0.4-0.6-0.5c-0.9-0.2-1.4-0.7-1.5-1.3c0.9,0.1,1.8,0.1,2.6-0.1
    c0.2-0.1,0.4-0.3,0.4-0.5l0.1-1.6c0.5-0.1,1-0.4,1.3-0.7c0.5-0.4,0.6-1.1,0.3-1.7c-0.2-0.3-0.4-0.5-0.7-0.7
    c-1-0.6-1.6-1.8-1.5-2.9c0-0.3,0-0.7,0-1c0-0.3-0.3-0.5-0.6-0.5c-0.3,0-0.5,0.3-0.5,0.6c0,0.3,0,0.6,0,0.9
    c-0.1,1.6,0.7,3.1,2,3.9c0.1,0.1,0.2,0.1,0.3,0.2c0.1,0.1,0,0.3-0.1,0.4c-0.3,0.3-0.8,0.5-1.2,0.5c-0.3,0-0.5,0.3-0.5,0.5
    l-0.1,1.6c-0.6,0.1-1.3,0.1-1.9,0c-0.6-0.1-1.1,0.3-1.2,0.9c0,0.1,0,0.2,0,0.4c0.1,0.6,0.6,1.7,2.2,2.2L11,14.3
    c-0.1,0.4-0.2,0.8-0.2,1.2c0,0,0,0,0,0.1c0.1,0.3,0,0.6-0.2,0.9c-0.2,0.3-0.5,0.4-0.8,0.4C9,17,8,17,7.1,16.8
    c-1-0.2-2-0.5-2.8-1.1c-0.5-0.3-1-0.8-1.3-1.3c-0.2-0.3-0.5-0.4-0.8-0.2C2,14.3,1.9,14.7,2,14.9C2.4,15.6,3,16.2,3.7,16.6z"/>
  <path d="M14.3,14.6c-0.3,0.2-0.3,0.5-0.2,0.8c0.2,0.3,0.5,0.3,0.8,0.2c1.2-0.8,1.6-2.4,0.9-3.6
    c-0.1-0.3-0.5-0.4-0.8-0.2c-0.3,0.1-0.4,0.5-0.2,0.8C15.3,13.1,15,14.1,14.3,14.6z"/>
  <path d="M16.6,17.7c0.1,0,0.2,0,0.3-0.1c2-1.6,2.7-4.3,1.7-6.6c-0.1-0.3-0.4-0.4-0.7-0.3c-0.3,0.1-0.4,0.4-0.3,0.7
    c0.8,1.9,0.2,4-1.4,5.3c-0.2,0.2-0.3,0.5-0.1,0.8C16.3,17.7,16.5,17.7,16.6,17.7z"/>
  <path d="M20.8,9.8c-0.3,0.1-0.4,0.4-0.3,0.7c1.1,3,0.3,6.3-2.2,8.4c-0.2,0.2-0.3,0.5-0.1,0.8
    c0.2,0.2,0.5,0.3,0.8,0.1c2.8-2.4,3.8-6.2,2.5-9.6C21.4,9.8,21.1,9.7,20.8,9.8z"/>
</svg>
